<svg width="750" height="766" viewBox="0 0 750 766" fill="none" xmlns="http://www.w3.org/2000/svg">
<path d="M38.0583 728.017C90.8169 780.776 163.718 777.897 220.953 720.983C266.675 675.26 361.64 513.789 444.134 431.294C499.13 376.299 559.881 405.396 620.954 380.456L566.595 182.214C559.881 157.594 569.793 137.132 598.251 129.457L718.151 97.483C714.314 86.2916 703.764 70.943 690.655 57.5144C616.795 -16.367 494.653 -19.2241 421.751 49.8408C315.597 151.2 396.171 258.313 326.148 328.337C238.218 416.267 110.321 478.297 45.0926 544.804C-12.1417 602.359 -15.3388 674.62 38.0583 728.017ZM435.501 243.286C428.467 245.204 422.71 241.687 420.153 234.013C418.234 228.259 422.391 221.224 429.105 219.304L503.607 199.162C509.681 197.563 516.715 201.399 518.634 208.114C520.553 215.469 516.395 221.863 509.681 223.782L435.501 243.286ZM656.447 365.109C668.594 357.754 681.383 348.162 694.493 335.692C734.784 299.242 755.563 244.246 747.253 205.237L650.37 231.774C639.5 234.653 630.547 235.292 620.313 233.694L656.447 365.109ZM445.093 281.334C438.058 283.254 431.984 279.737 429.425 272.063C427.507 266.307 431.663 259.273 438.378 257.674L512.878 237.212C518.954 235.932 525.988 239.449 527.907 246.164C530.144 253.517 525.668 259.913 518.954 261.83L445.093 281.334ZM454.365 319.384C447.65 321.303 440.937 317.786 439.337 310.432C437.738 303.717 441.575 297.643 448.29 295.724L522.471 275.9C529.505 273.662 536.22 277.817 537.818 284.213C539.098 290.609 535.261 297.643 529.185 299.242L454.365 319.384ZM88.2583 678.139C66.5155 656.394 66.1955 619.944 87.6183 598.202C109.361 575.82 145.493 576.779 167.874 597.882C190.897 619.624 188.658 655.436 167.555 678.139C147.411 700.2 109.681 699.56 88.2583 678.139Z" fill="white"/>
</svg>
