<svg width="712" height="691" viewBox="0 0 712 691" fill="none" xmlns="http://www.w3.org/2000/svg">
<path d="M355.556 298.665C413.976 298.665 461.334 251.903 461.334 194.22C461.334 136.537 413.976 89.7759 355.556 89.7759C297.137 89.7759 249.778 136.537 249.778 194.22C249.778 251.903 297.137 298.665 355.556 298.665Z" fill="white"/>
<path d="M195.112 204.665C198.667 204.665 202.223 204.665 205.778 204.665C205.778 201.331 205.778 198.443 205.778 195.109C205.843 167.323 213.682 140.108 228.409 116.545C243.136 92.9822 264.163 74.0104 289.112 61.776C281.726 44.7662 269.871 30.0745 254.806 19.2612C239.741 8.44792 222.028 1.91687 203.549 0.361705C185.071 -1.19346 166.516 2.28535 149.855 10.4286C133.195 18.5719 119.051 31.0756 108.926 46.6116C98.8013 62.1477 93.0733 80.136 92.3507 98.666C91.6281 117.196 95.9377 135.576 104.822 151.853C113.706 168.13 126.833 181.698 142.809 191.114C158.785 200.53 177.012 205.443 195.556 205.331L195.112 204.665Z" fill="white"/>
<path d="M505.778 194.22C505.778 197.554 505.778 200.443 505.778 203.776C509.334 203.776 512.889 203.776 516.445 203.776C534.742 203.592 552.651 198.48 568.287 188.976C583.923 179.472 596.707 165.929 605.295 149.772C613.883 133.614 617.956 115.441 617.086 97.1639C616.216 78.8869 610.435 61.1825 600.351 45.9141C590.267 30.6457 576.254 18.3782 559.786 10.4027C543.318 2.42716 525.004 -0.961307 506.773 0.593933C488.541 2.14917 471.066 8.59059 456.187 19.2402C441.308 29.8898 429.575 44.3537 422.223 61.1094C447.179 73.2959 468.229 92.2197 482.994 115.742C497.76 139.265 505.652 166.448 505.778 194.22Z" fill="white"/>
<path d="M450.889 309.109C495.073 317.855 537.794 332.818 577.778 353.554C583.412 356.648 588.513 360.624 592.889 365.332H711.112V289.332C711.133 286.417 710.358 283.551 708.87 281.045C707.381 278.538 705.237 276.486 702.667 275.109C645.07 244.983 581 229.347 516 229.554H501.334C493.632 260.859 475.92 288.793 450.889 309.109Z" fill="white"/>
<path d="M100.667 408.442C100.627 397.251 103.649 386.261 109.407 376.664C115.165 367.067 123.44 359.229 133.334 353.998C173.318 333.263 216.039 318.299 260.223 309.553C235.313 289.41 217.612 261.727 209.778 230.665H195.112C130.112 230.458 66.0415 246.094 8.44488 276.22C5.87529 277.597 3.73057 279.649 2.24232 282.155C0.754083 284.662 -0.0211183 287.527 0.000437595 290.442V432.442H100.667V408.442Z" fill="white"/>
<path d="M564.889 536.665H432.445V567.776H564.889V536.665Z" fill="white"/>
<path d="M684.667 415.998H532V393.776C532 387.882 529.659 382.23 525.492 378.062C521.324 373.895 515.672 371.554 509.778 371.554C503.884 371.554 498.232 373.895 494.065 378.062C489.897 382.23 487.556 387.882 487.556 393.776V415.998H444.445V353.109C415.208 346.97 385.43 343.768 355.556 343.554C285.417 343.261 216.281 360.202 154.223 392.887C151.458 394.321 149.145 396.491 147.537 399.158C145.929 401.825 145.089 404.884 145.112 407.998V532.665H303.112V667.998C303.112 673.892 305.453 679.544 309.62 683.711C313.788 687.879 319.44 690.22 325.334 690.22H684.667C690.561 690.22 696.213 687.879 700.38 683.711C704.548 679.544 706.889 673.892 706.889 667.998V438.22C706.889 432.326 704.548 426.674 700.38 422.507C696.213 418.339 690.561 415.998 684.667 415.998ZM662.445 646.22H347.556V460.442H487.556V480.665C487.556 486.558 489.897 492.211 494.065 496.378C498.232 500.546 503.884 502.887 509.778 502.887C515.672 502.887 521.324 500.546 525.492 496.378C529.659 492.211 532 486.558 532 480.665V460.442H662.445V646.22Z" fill="white"/>
</svg>
