<svg width="22" height="23" viewBox="0 0 22 23" fill="none" xmlns="http://www.w3.org/2000/svg">
    <path opacity="0.5" d="M1 15.75C1 12.9216 1 11.5074 1.87868 10.6287C2.75736 9.75 4.17157 9.75 7 9.75H15C17.8284 9.75 19.2426 9.75 20.1213 10.6287C21 11.5074 21 12.9216 21 15.75C21 18.5784 21 19.9926 20.1213 20.8713C19.2426 21.75 17.8284 21.75 15 21.75H7C4.17157 21.75 2.75736 21.75 1.87868 20.8713C1 19.9926 1 18.5784 1 15.75Z" fill="currentColor" stroke="#ABABAB"/>
    <path d="M5.75 7.75C5.75 4.85051 8.10051 2.5 11 2.5C13.8995 2.5 16.25 4.85051 16.25 7.75V9.7536C16.8174 9.7589 17.3135 9.772 17.75 9.8046V7.75C17.75 4.02208 14.7279 1 11 1C7.27208 1 4.25 4.02208 4.25 7.75V9.8046C4.68651 9.772 5.18264 9.7589 5.75 9.7536V7.75Z" fill="currentColor" stroke="#ABABAB"/>
</svg>
