<svg width="500" height="500" viewBox="0 0 500 500" fill="none" xmlns="http://www.w3.org/2000/svg">
<path d="M410.25 259C320.62 207.47 175.3 207.47 85.6699 259C-3.96008 310.53 -3.95008 394.09 85.6699 445.62C175.29 497.15 320.61 497.16 410.24 445.62C499.87 394.08 499.87 310.5 410.25 259Z" fill="#F5F5F5"/>
<path d="M351.591 377.63C374.218 377.63 392.561 367.042 392.561 353.98C392.561 340.918 374.218 330.33 351.591 330.33C328.964 330.33 310.621 340.918 310.621 353.98C310.621 367.042 328.964 377.63 351.591 377.63Z" fill="#E0E0E0"/>
<path d="M302.71 395.39C286.35 393.88 272.43 394.92 261.37 397.21C259.91 386.77 251.37 376.55 235.69 368.57C201.15 350.96 145.14 350.96 110.6 368.57C76.0603 386.18 76.0603 414.73 110.6 432.34C145.14 449.95 201.15 449.94 235.69 432.34C239.31 430.512 242.775 428.391 246.05 426C257.365 428.567 268.95 429.753 280.55 429.53L281.74 429.92C291.139 432.945 300.938 434.546 310.81 434.67C318.44 434.67 324.81 433.46 328.41 431.01C328.787 430.756 329.148 430.479 329.49 430.18C334.21 430.32 339.34 430.51 344.74 429.43C352.57 427.85 356.41 424.43 356.19 420.31C355.64 410 325.6 397.49 302.71 395.39ZM281 426.21C274.28 423.74 270.7 420.37 271.1 416.83C271.63 412.17 278.51 407.97 286.77 407.28C287.91 407.19 289.08 407.14 290.24 407.14C296.61 407.14 303.14 408.5 307.24 410.49C305.398 410.515 303.57 410.822 301.82 411.4C299.35 412.25 298.21 414.23 298.82 416.57C299.3 418.33 300.82 420.26 303.14 422.11C297.41 424.66 289.59 425.94 281 426.21ZM307.88 413.74C309.09 413.742 310.297 413.843 311.49 414.04C311.529 414.127 311.559 414.217 311.58 414.31C312.07 416.05 310.24 418.23 306.5 420.42C303.93 418.7 302.39 416.97 302.05 415.71C301.94 415.32 301.82 414.87 302.93 414.49C304.521 413.971 306.187 413.718 307.86 413.74H307.88ZM290 428.81C295.481 428.239 300.831 426.776 305.84 424.48L306.35 424.22C311.722 427.17 317.62 429.039 323.71 429.72C316.47 432.3 303.14 431.92 290 428.81ZM328.11 426.81C321.73 426.537 315.471 424.976 309.71 422.22C313.27 419.83 315.02 417.33 314.94 414.76C318.434 415.709 321.723 417.296 324.64 419.44C327.29 421.44 328.73 423.62 328.64 425.35C328.596 425.891 328.406 426.409 328.09 426.85L328.11 426.81ZM344.11 426.18C339.67 427.08 335.49 426.89 331.63 426.91C331.757 426.476 331.837 426.031 331.87 425.58C332.07 422.7 330.21 419.58 326.63 416.85C322.722 413.987 318.239 412.005 313.49 411.04C309.1 405.58 295.72 403.22 286.49 403.98C276.57 404.82 268.55 410.16 267.84 416.42C267.57 418.79 268.2 422.64 273.53 426.16C265.419 425.875 257.345 424.922 249.39 423.31C257.53 416.31 261.6 408.31 261.61 400.43C272.4 398.15 286.13 397.1 302.42 398.6C326.37 400.8 352.56 413.3 352.94 420.44C353 422.61 349.83 425.07 344.09 426.22L344.11 426.18Z" fill="#E0E0E0"/>
<path d="M137.17 59.22L125.71 65.83C125.773 65.329 125.806 64.8248 125.81 64.32V61C125.81 55.09 121.66 52.7 116.54 55.65C114.327 57.0107 112.437 58.8362 111 61C110.17 53.57 104.34 50.8 97.2599 54.89C89.6099 59.31 83.3999 70.05 83.3999 78.89V83.89C83.3522 85.8713 83.7557 87.8376 84.5799 89.64L75.0599 95.13C73.5645 96.1057 72.3199 97.4199 71.4269 98.9661C70.5339 100.512 70.0177 102.247 69.9199 104.03C69.9199 107.31 72.2199 108.64 75.0599 107.03L137.15 71.18C138.645 70.2037 139.889 68.8894 140.782 67.3433C141.675 65.7972 142.191 64.0627 142.29 62.28C142.31 58.91 140 57.58 137.17 59.22Z" fill="#EBEBEB"/>
<path d="M183.72 79L176.41 83.22C176.45 82.8882 176.471 82.5543 176.47 82.22V80.13C176.47 76.37 173.83 74.84 170.57 76.73C169.166 77.5891 167.965 78.7423 167.05 80.11C166.51 75.37 162.8 73.61 158.29 76.22C153.41 79.03 149.45 85.88 149.45 91.52V94.69C149.417 95.9512 149.674 97.2032 150.2 98.35L144.13 101.86C143.175 102.48 142.381 103.317 141.811 104.302C141.241 105.288 140.911 106.393 140.85 107.53C140.85 109.62 142.32 110.47 144.13 109.42L183.72 86.57C184.674 85.9476 185.469 85.109 186.039 84.1221C186.609 83.1353 186.938 82.0279 187 80.89C187 78.8 185.53 78 183.72 79Z" fill="#EBEBEB"/>
<path d="M345.189 350.33C344.243 338.624 344.936 326.844 347.249 315.33C349.909 301.51 357.839 290.33 367.329 285.07C370.619 283.26 377.499 281.32 381.999 285.38C386.289 289.25 383.999 295.48 378.749 301.89C368.409 314.51 358.219 325.07 355.429 341.63L354.269 353.91L345.189 350.33Z" fill="#D3D3D3"/>
<path opacity="0.2" d="M345.189 350.33C344.243 338.624 344.936 326.844 347.249 315.33C349.909 301.51 357.839 290.33 367.329 285.07C370.619 283.26 377.499 281.32 381.999 285.38C386.289 289.25 383.999 295.48 378.749 301.89C368.409 314.51 358.219 325.07 355.429 341.63L354.269 353.91L345.189 350.33Z" fill="black"/>
<path d="M348.389 348.78C348.251 348.78 348.119 348.725 348.021 348.628C347.924 348.53 347.869 348.398 347.869 348.26C347.869 332.26 351.259 318.41 358.239 305.91C362.839 297.65 368.479 291.65 375.459 287.57C375.579 287.501 375.72 287.482 375.853 287.518C375.987 287.554 376.1 287.641 376.169 287.76C376.203 287.818 376.225 287.883 376.234 287.95C376.243 288.017 376.238 288.085 376.22 288.15C376.203 288.215 376.172 288.276 376.131 288.329C376.089 288.382 376.038 288.427 375.979 288.46C369.159 292.46 363.649 298.31 359.129 306.46C352.249 318.81 348.899 332.46 348.899 348.31C348.889 348.438 348.831 348.558 348.736 348.645C348.642 348.732 348.518 348.78 348.389 348.78Z" fill="white"/>
<path d="M359.61 356.09C359.61 352.16 362.23 344.88 367.93 337.84C374.23 330.04 383.5 324.58 384.55 319.65C385.82 313.73 380.38 310.85 372.33 313.65C362.66 317.07 353.12 330.38 354.27 353.88L359.61 356.09Z" fill="#D3D3D3"/>
<path d="M357.289 352.59C357.378 352.558 357.455 352.5 357.511 352.423C357.566 352.346 357.597 352.255 357.599 352.16C358.789 331.34 370.829 320.65 377.229 317.82C377.347 317.765 377.439 317.667 377.486 317.546C377.533 317.424 377.53 317.29 377.479 317.17C377.453 317.111 377.416 317.057 377.369 317.012C377.322 316.968 377.267 316.933 377.206 316.909C377.146 316.886 377.082 316.875 377.017 316.877C376.952 316.879 376.888 316.893 376.829 316.92C369.749 320.05 357.829 330.85 356.619 352.11C356.616 352.24 356.663 352.367 356.751 352.464C356.838 352.56 356.959 352.62 357.089 352.63C357.158 352.632 357.227 352.618 357.289 352.59Z" fill="white"/>
<path d="M309.71 429.76C299.837 429.633 290.038 428.028 280.64 425L279.45 424.61C263 425.08 244.07 421.94 230.25 416.79L231.39 413.73C242.76 417.96 258.14 420.82 272.39 421.28C267.05 417.76 266.39 413.91 266.7 411.55C267.41 405.28 275.42 399.94 285.35 399.1C294.57 398.34 307.95 400.7 312.35 406.17C317.099 407.127 321.583 409.106 325.49 411.97C329.07 414.72 330.93 417.82 330.73 420.7C330.697 421.151 330.616 421.596 330.49 422.03C334.35 422.03 338.49 422.2 342.97 421.3C348.71 420.15 351.92 417.69 351.81 415.56C351.43 408.42 325.24 395.92 301.29 393.72C269.39 390.78 247.29 397.61 237.98 404.35L236.06 401.71C245.78 394.64 268.79 387.45 301.59 390.47C324.47 392.57 354.52 405.03 355.07 415.39C355.29 419.48 351.44 422.93 343.62 424.51C338.21 425.59 333.08 425.4 328.36 425.26C328.023 425.561 327.666 425.839 327.29 426.09C323.7 428.55 317.33 429.76 309.71 429.76ZM288.88 423.91C302.04 427.02 315.37 427.39 322.59 424.81C316.499 424.131 310.601 422.262 305.23 419.31L304.72 419.57C299.71 421.865 294.36 423.331 288.88 423.91ZM308.59 417.36C314.352 420.11 320.611 421.668 326.99 421.94C327.275 421.502 327.447 421.001 327.49 420.48C327.61 418.76 326.16 416.6 323.49 414.57C320.57 412.43 317.282 410.844 313.79 409.89C313.9 412.46 312.15 415 308.59 417.36ZM289.12 402.23C287.95 402.23 286.79 402.23 285.65 402.37C277.39 403.06 270.5 407.26 269.98 411.92C269.58 415.46 273.16 418.83 279.87 421.3C288.48 421.03 296.3 419.75 302.08 417.2C299.74 415.35 298.25 413.42 297.77 411.66C297.14 409.32 298.28 407.34 300.77 406.49C302.519 405.911 304.347 405.604 306.19 405.58C302 403.59 295.49 402.23 289.12 402.23ZM306.76 408.83C305.08 408.804 303.407 409.057 301.81 409.58C300.7 409.96 300.81 410.41 300.93 410.8C301.27 412.06 302.8 413.8 305.38 415.51C309.12 413.32 310.95 411.14 310.46 409.4C310.439 409.307 310.409 409.217 310.37 409.13C309.176 408.938 307.969 408.838 306.76 408.83Z" fill="#455A64"/>
<path d="M319.119 425.73C321.358 426.244 323.62 426.644 325.899 426.93C326.386 426.684 326.857 426.407 327.309 426.1C327.685 425.849 328.042 425.571 328.379 425.27C328.379 425.27 325.179 425.11 322.589 424.81C321.456 425.201 320.297 425.508 319.119 425.73Z" fill="#37474F"/>
<path d="M302.82 420.43C303.47 420.16 304.11 419.87 304.72 419.57L305.23 419.31C304.119 418.704 303.064 417.997 302.08 417.2C301.31 417.54 300.49 417.85 299.65 418.15C300.587 419.065 301.655 419.833 302.82 420.43Z" fill="#37474F"/>
<path d="M310.461 409.4C310.61 410.009 310.524 410.652 310.221 411.2C311.324 411.34 312.405 411.615 313.441 412.02C313.708 411.343 313.838 410.618 313.821 409.89C312.701 409.514 311.545 409.259 310.371 409.13C310.41 409.217 310.44 409.307 310.461 409.4Z" fill="#37474F"/>
<path d="M268.461 421.09C269.972 422.476 271.652 423.666 273.461 424.63C275.461 424.67 277.461 424.67 279.461 424.63C277.044 423.705 274.703 422.592 272.461 421.3C271.111 421.24 269.791 421.18 268.461 421.09Z" fill="#37474F"/>
<path d="M236.08 401.72L238 404.36C241.66 401.7 247.33 399.03 254.81 396.95C255.176 395.782 255.456 394.589 255.65 393.38C246.87 395.64 240.25 398.69 236.08 401.72Z" fill="#37474F"/>
<path d="M241.25 416.81C237.75 415.89 234.42 414.87 231.39 413.74L230.25 416.8C232.71 417.72 235.34 418.56 238.08 419.34C239.17 418.55 240.23 417.7 241.25 416.81Z" fill="#37474F"/>
<path d="M178 278.37H177.93C165.51 277.9 153.75 268.67 142.38 259.75C132.66 252.12 123.47 244.91 115.62 244.91C115.188 244.91 114.773 244.738 114.468 244.433C114.162 244.127 113.99 243.712 113.99 243.28C113.99 242.848 114.162 242.433 114.468 242.127C114.773 241.822 115.188 241.65 115.62 241.65C124.62 241.65 134.22 249.19 144.4 257.18C155.4 265.78 166.69 274.67 178.06 275.1C178.472 275.139 178.854 275.332 179.129 275.64C179.404 275.948 179.553 276.349 179.546 276.763C179.538 277.176 179.375 277.571 179.088 277.869C178.801 278.167 178.413 278.346 178 278.37Z" fill="#455A64"/>
<path d="M97.2701 350.05C88.4301 346.77 80.8701 334.68 84.1601 321.22C88.1601 305 105.93 293.51 115.7 284.1C133.86 266.61 144.98 252.63 139.19 227.47C134.12 205.47 113.73 198.11 101.61 198.56C86.6101 199.13 77.1301 205.39 77.9601 210.26C78.3301 212.42 82.4201 213.38 85.6501 214.57C95.6501 218.23 98.7701 220.47 101.97 224.78C106.84 231.34 107.66 239.91 106.61 240.5C105.56 241.09 104.17 236.16 97.5201 233.32C90.8701 230.48 87.6201 232.53 87.6801 234.01C87.7401 235.49 93.8601 236.89 95.6801 245.69C97.2201 253.01 96.8501 262.44 85.8401 277.51C79.0601 286.79 63.6501 304.16 67.0101 326.33C70.3701 348.5 87.2501 356.6 94.2001 357L97.2701 350.05Z" fill="#D3D3D3"/>
<path opacity="0.05" d="M97.2701 350.05C88.4301 346.77 80.8701 334.68 84.1601 321.22C88.1601 305 105.93 293.51 115.7 284.1C133.86 266.61 144.98 252.63 139.19 227.47C134.12 205.47 113.73 198.11 101.61 198.56C86.6101 199.13 77.1301 205.39 77.9601 210.26C78.3301 212.42 82.4201 213.38 85.6501 214.57C95.6501 218.23 98.7701 220.47 101.97 224.78C106.84 231.34 107.66 239.91 106.61 240.5C105.56 241.09 104.17 236.16 97.5201 233.32C90.8701 230.48 87.6201 232.53 87.6801 234.01C87.7401 235.49 93.8601 236.89 95.6801 245.69C97.2201 253.01 96.8501 262.44 85.8401 277.51C79.0601 286.79 63.6501 304.16 67.0101 326.33C70.3701 348.5 87.2501 356.6 94.2001 357L97.2701 350.05Z" fill="black"/>
<path opacity="0.15" d="M94.1999 357L97.2699 350.06C94.7146 349.068 92.4073 347.528 90.5099 345.55C89.1468 348.623 88.1111 351.83 87.4199 355.12C89.5523 356.139 91.8472 356.776 94.1999 357Z" fill="black"/>
<path d="M123 224.4C124.35 223.51 123.87 221.4 123.2 219.98C121.476 216.165 119.031 212.718 116 209.83C118.206 210.295 120.377 210.909 122.5 211.67C125.58 212.67 127.57 213.98 128.03 212.84C128.189 211.972 128.148 211.079 127.91 210.23C127.37 208.11 126.85 207.34 126.12 206.77C119.091 201.353 110.443 198.461 101.57 198.56C86.5696 199.13 77.0896 205.39 77.9196 210.26C78.2896 212.42 82.3796 213.38 85.6096 214.57C95.6096 218.23 98.7296 220.47 101.93 224.78C101.93 224.84 105.55 226.57 107.18 227.61C107.888 228.124 108.706 228.466 109.57 228.61C109.966 228.651 110.365 228.556 110.7 228.34C111.82 227.6 111.58 225.92 111.17 224.65C110.357 222.16 109.354 219.736 108.17 217.4C112.059 218.293 115.654 220.169 118.61 222.85C119.86 224 121.57 225.3 123 224.4Z" fill="#455A64"/>
<path d="M171.67 344.22C172.94 361.6 178.67 372.42 190.49 382.46C202.31 392.5 219.18 398.46 226.63 401.74C234.08 405.02 239.63 408.94 244.99 404.38C250.35 399.82 249.91 389.95 259.46 382.11C269.01 374.27 272.36 372.11 272.61 366.39C272.93 358.88 265.7 359.07 263.49 360.2C263.49 360.2 261.62 357 256.29 358.2C253.546 358.868 251.174 360.584 249.68 362.98C249.68 362.98 246.36 362.78 242.85 366.06C239.74 368.96 233.69 376.75 233.69 376.75C233.69 376.75 240.15 366.6 237.33 355.75C234.78 345.93 228.5 343.25 228.5 343.25C228.5 343.25 231.2 341.87 238.42 343.16C238.42 343.16 235.42 334.78 222.24 331.53C209.06 328.28 200.35 337.71 200.35 337.71L171.67 344.22Z" fill="#D3D3D3"/>
<path opacity="0.15" d="M252.001 360.29C251.074 361.046 250.277 361.948 249.641 362.96C251.641 362.96 255.831 363.17 257.301 368.27C257.341 368.27 259.001 362.52 252.001 360.29Z" fill="black"/>
<path opacity="0.15" d="M264.74 366.18C264.74 366.18 267.45 364.65 265.88 359.63C265.055 359.668 264.244 359.862 263.49 360.2C264.156 361.027 264.617 362 264.834 363.04C265.051 364.079 265.019 365.155 264.74 366.18Z" fill="black"/>
<path d="M256.26 375.87C252.913 376.671 249.81 378.272 247.218 380.536C244.626 382.801 242.623 385.661 241.38 388.87C238.38 396 239.45 400.77 242.38 401.5C245.31 402.23 246.68 401.82 249.21 397.97C251.31 393.18 253.29 387.24 259.5 382.14L264.34 378.19C264 376.09 261.26 374.64 256.26 375.87Z" fill="#F28F8F"/>
<path d="M254.741 369.07C252.741 368.28 250.741 372.91 253.001 373.79C254.871 374.52 257.351 370.13 254.741 369.07Z" fill="#FFA8A7"/>
<path d="M262.401 367.5C260.451 366.71 258.401 371.34 260.661 372.22C262.531 373 265.001 368.56 262.401 367.5Z" fill="#F28F8F"/>
<path d="M268.69 367.34C266.74 366.54 264.69 371.17 266.95 372.05C268.83 372.78 271.31 368.4 268.69 367.34Z" fill="#F28F8F"/>
<path d="M151.071 299.58C150.071 305.13 129.181 310.41 114.841 321.22C100.501 332.03 87.8407 346.77 90.0907 372.32C92.5607 400.32 117.801 410.65 131.091 410.65C144.381 410.65 189.761 407.13 212.991 374.08C236.221 341.03 204.931 297.51 151.071 299.58Z" fill="#D3D3D3"/>
<path opacity="0.15" d="M118.391 364.31C118.391 364.31 125.621 351.56 145.471 355.08C165.321 358.6 163.541 389.35 163.541 389.35C163.541 389.35 163.761 406.54 151.071 404.74C138.381 402.94 118.391 364.31 118.391 364.31Z" fill="black"/>
<path opacity="0.15" d="M151.072 299.58C150.921 300.224 150.604 300.817 150.152 301.3C149.302 311.54 152.462 324.74 164.152 328.37C176.862 332.37 191.212 330.05 200.842 326.66C204.012 325.53 207.096 324.173 210.072 322.6C198.252 308.41 177.352 298.57 151.072 299.58Z" fill="black"/>
<path d="M159.081 372.19H158.731C114.731 362.74 98.5307 334.97 92.7307 319.25C85.2307 298.81 84.5807 276.42 91.1107 263.54C91.3043 263.149 91.6453 262.851 92.0589 262.711C92.4724 262.571 92.9245 262.601 93.3157 262.795C93.7069 262.989 94.0051 263.33 94.1448 263.743C94.2845 264.157 94.2543 264.609 94.0607 265C87.9207 277.12 88.6307 298.46 95.8407 318.11C101.371 333.19 116.991 359.85 159.421 368.97C159.821 369.048 160.178 369.272 160.421 369.6C160.664 369.928 160.775 370.335 160.732 370.741C160.689 371.147 160.496 371.522 160.19 371.792C159.884 372.062 159.489 372.208 159.081 372.2V372.19Z" fill="#455A64"/>
<path d="M256.529 361.25C261.589 390.55 242.529 418.31 213.939 423.25C185.349 428.19 158.069 408.45 152.999 379.15C148.739 354.49 162.099 333.94 183.489 325.15C189.775 322.581 196.441 321.064 203.219 320.66C229.069 319.07 251.869 334.32 256.529 361.25Z" fill="#455A64"/>
<mask id="mask0_1333_13022" style="mask-type:luminance" maskUnits="userSpaceOnUse" x="152" y="320" width="106" height="105">
<path d="M256.529 361.25C261.589 390.55 242.529 418.31 213.939 423.25C185.349 428.19 158.069 408.45 152.999 379.15C148.739 354.49 162.099 333.94 183.489 325.15C189.775 322.581 196.441 321.064 203.219 320.66C229.069 319.07 251.869 334.32 256.529 361.25Z" fill="white"/>
</mask>
<g mask="url(#mask0_1333_13022)">
<path opacity="0.15" d="M290.379 369.62C278.055 373.825 265.098 375.872 252.079 375.67C254.698 374.623 257.249 373.414 259.719 372.05C265.329 369.05 272.339 365.69 273.869 359.05C274.169 357.81 272.649 358.05 272.059 358.54C267.679 362.15 262.409 366.74 256.689 370.24C250.254 374.091 242.583 375.316 235.269 373.66C233.759 373.33 232.269 372.96 230.729 372.55C235.921 371.529 240.915 369.679 245.519 367.07C256.169 361 261.639 352.48 263.519 340.61C263.739 339.27 262.369 338.83 261.519 339.7C259.879 341.33 259.579 343.06 258.829 345.28C256.419 352.28 253.069 356.34 247.099 360.72C242.887 363.774 238.138 366.007 233.099 367.3C230.539 367.94 227.889 368.05 225.299 368.45C222.639 368.939 219.896 368.675 217.379 367.69C215.416 366.775 213.515 365.733 211.689 364.57C222.899 363.91 235.419 354 242.619 347.29C250.239 340.18 255.749 331.29 254.519 320.73C254.309 318.84 252.129 319.98 251.869 321.26C250.869 326.19 250.419 329.43 248.119 334.13C245.796 338.683 242.547 342.699 238.579 345.92C230.299 353.09 218.899 360.81 207.649 361.84C206.079 360.68 204.519 359.47 203.039 358.18C211.469 355.03 218.669 348.74 224.559 341.94C228.096 337.991 230.845 333.402 232.659 328.42C233.789 325.24 236.309 319.99 234.979 316.66C234.349 315.1 232.419 316.58 232.309 317.66C231.519 325.77 226.869 333.66 221.699 339.87C219.239 333.03 217.529 327.02 217.999 319.46C218.276 315.886 218.773 312.333 219.489 308.82C219.709 307.69 220.079 306.58 219.489 305.53C218.679 304.02 216.779 306.37 217.059 307.47C216.989 307.19 216.059 308.64 215.969 308.74C215.119 310.22 215.199 312.44 214.969 314.1C214.481 316.882 214.196 319.696 214.119 322.52C213.939 329.96 215.999 336.36 218.869 343.07C216.156 345.644 213.233 347.986 210.129 350.07C208.239 348.67 206.919 345.07 205.859 343.14C204.136 340.354 202.625 337.443 201.339 334.43C198.569 327.22 199.229 318.7 196.209 311.86C195.859 311.06 194.389 311.98 194.359 312.61C194.099 321.99 195.649 331.67 199.759 340.21C201.359 343.55 203.679 349.35 206.679 352.58C205.92 353.148 205.094 353.618 204.219 353.98C203.297 354.415 202.311 354.695 201.299 354.81C198.919 354.97 197.589 352.81 196.169 351.24C194.514 349.389 192.962 347.45 191.519 345.43C187.971 340.538 185.214 335.118 183.349 329.37C181.889 324.58 182.229 319.06 179.929 314.54C178.819 312.36 176.139 314.61 176.749 316.49C178.359 321.49 177.489 326.96 179.039 332.07C181.247 338.87 184.551 345.264 188.819 351C195.621 360.131 204.449 367.559 214.609 372.7C228.609 379.56 246.539 383.53 263.229 381.9C245.092 385.341 226.348 383.498 209.229 376.59C189.729 368.72 170.229 351.08 165.149 330.03C164.939 329.23 163.509 329.67 163.449 330.37C162.449 340.78 170.449 351.8 177.279 358.91C185.099 367.01 193.399 374.66 203.889 379.25C215.299 384.25 226.739 387.58 239.289 387.81C244.347 387.961 249.411 387.854 254.459 387.49C248.188 389.6 241.649 390.805 235.039 391.07C226.469 391.18 217.959 389.66 209.639 387.75C196.119 384.64 184.819 379.09 174.589 369.61C170.496 365.649 166.835 361.264 163.669 356.53C160.569 352.1 156.009 347.01 154.849 341.66C154.589 340.45 152.579 341.78 152.659 342.66C152.979 347.07 155.069 351.26 157.339 354.98C158.609 357.08 160.069 359.03 161.499 360.98C162.952 362.731 163.85 364.876 164.079 367.14C164.159 369.06 163.459 370.66 163.179 372.5C162.899 374.34 162.569 375.87 162.279 377.56C161.711 381.061 161.426 384.603 161.429 388.15C161.329 399.57 166.779 409.46 172.939 418.68C173.579 419.68 175.229 418.11 174.939 417.23C171.559 406.6 165.059 398.18 165.669 386.48C165.979 380.66 167.669 375.29 168.999 369.74C169.109 369.86 169.229 370 169.339 370.1C171.279 372.1 173.339 374.1 175.439 375.91C177.139 377.37 179.059 379.02 178.809 381.49C178.479 383.151 178.008 384.78 177.399 386.36C176.93 388.18 176.596 390.031 176.399 391.9C175.999 395.11 175.869 398.35 175.629 401.57C174.879 412.05 177.629 425.48 185.209 433.31C185.402 433.468 185.644 433.555 185.894 433.555C186.143 433.555 186.385 433.468 186.579 433.31C187.634 435.717 189.103 437.92 190.919 439.82C191.069 439.969 191.267 440.062 191.478 440.083C191.689 440.103 191.9 440.05 192.077 439.932C192.253 439.815 192.384 439.64 192.446 439.437C192.508 439.234 192.498 439.016 192.419 438.82C189.455 431.153 188.196 422.933 188.729 414.73C195.979 417.99 206.279 417.46 213.199 415.31C218.534 413.777 223.596 411.415 228.199 408.31C233.303 404.975 237.687 400.65 241.089 395.59C249.929 394.86 257.289 392.12 265.029 387.5C265.348 387.253 265.598 386.929 265.758 386.558C265.917 386.187 265.979 385.782 265.939 385.38C267.858 384.813 269.73 384.098 271.539 383.24C271.992 382.918 272.322 382.452 272.476 381.918C272.631 381.384 272.6 380.814 272.389 380.3C278.991 378.799 285.251 376.064 290.839 372.24C291.879 371.6 292.259 369 290.379 369.62ZM192.999 397.53C193.409 396.62 193.849 395.7 194.319 394.81C195.254 392.983 196.303 391.216 197.459 389.52C197.525 389.415 197.582 389.305 197.629 389.19C199.502 389.857 201.415 390.477 203.369 391.05C207.369 392.15 211.519 393.11 215.749 393.86C215.399 393.86 214.169 395.01 213.879 395.22C213.219 395.69 212.539 396.16 211.879 396.59C210.552 397.446 209.157 398.192 207.709 398.82C204.954 400.084 201.968 400.764 198.939 400.82C197.442 400.744 195.962 400.468 194.539 400C193.369 399.66 192.449 398.82 192.999 397.53ZM184.239 412C183.749 416.202 183.749 420.448 184.239 424.65C181.519 417.26 179.639 409.79 180.139 401.7C180.549 395.065 181.703 388.497 183.579 382.12C183.579 382.44 187.659 384.57 188.079 384.81C189.179 385.42 192.029 386.24 192.469 387.54C192.548 387.791 192.548 388.06 192.469 388.31C192.285 388.893 192.005 389.441 191.639 389.93C187.159 396.62 185.089 404 184.239 412ZM227.749 403.43C223.769 406.324 219.358 408.571 214.679 410.09C207.449 412.52 196.739 413.63 189.299 410.09C189.636 407.911 190.117 405.756 190.739 403.64C194.409 405.4 199.969 405.22 203.279 404.64C209.279 403.53 217.369 400.16 220.699 394.69C226.052 395.427 231.457 395.721 236.859 395.57C234.101 398.497 231.048 401.132 227.749 403.43Z" fill="black"/>
</g>
<g opacity="0.15">
<path d="M163.329 381.82C158.899 369.3 152.489 370.19 152.489 370.19C152.489 370.19 155.119 368.67 162.389 369.58C162.389 369.58 160.389 364.12 153.089 360.87C151.952 366.908 151.921 373.102 152.999 379.15C154.285 386.625 157.108 393.752 161.289 400.08C163.269 396 165.809 388.83 163.329 381.82Z" fill="black"/>
<path d="M178.738 416.72C180.303 413.17 182.592 409.985 185.458 407.37C194.578 399.04 197.808 396.67 197.748 390.98C197.678 383.46 190.468 383.98 188.318 385.27C188.318 385.27 186.318 382.17 181.028 383.64C178.323 384.45 176.044 386.288 174.678 388.76C174.678 388.76 171.108 388.39 167.398 392.37C165.229 394.884 163.225 397.537 161.398 400.31C165.877 407.009 171.803 412.617 178.738 416.72Z" fill="black"/>
</g>
<path d="M254.62 339.1C254.44 334.66 251.75 328.69 248.27 323.77C242.47 315.57 234.12 310.49 225.7 307.77L204 321.27C227.14 320.49 235.11 332.67 237.25 339.47C238.73 344.17 239.98 347.79 242.72 347.79C243.424 347.854 244.126 347.648 244.683 347.214C245.24 346.779 245.611 346.148 245.72 345.45C247.61 347.25 250.44 346.18 250.56 343.87C251.035 344.114 251.577 344.195 252.103 344.101C252.628 344.007 253.109 343.743 253.47 343.35C253.942 342.758 254.288 342.075 254.485 341.344C254.683 340.613 254.729 339.849 254.62 339.1Z" fill="#D3D3D3"/>
<path opacity="0.15" d="M225.7 307.73L204 321.27C206.73 321.166 209.465 321.266 212.18 321.57C218.398 318.302 224.021 314.009 228.81 308.87C227.79 308.45 226.753 308.07 225.7 307.73Z" fill="black"/>
<path opacity="0.15" d="M253.48 343.35C253.484 343.334 253.484 343.316 253.48 343.3C253.257 343.378 253.019 343.408 252.783 343.389C252.547 343.37 252.318 343.301 252.11 343.189C251.902 343.076 251.72 342.92 251.575 342.733C251.43 342.545 251.327 342.33 251.27 342.1C250.53 340.33 250.27 339.5 249.91 339.1C250.376 340.645 250.586 342.257 250.53 343.87C251.01 344.124 251.56 344.21 252.094 344.116C252.629 344.022 253.116 343.752 253.48 343.35Z" fill="black"/>
<path opacity="0.15" d="M248.91 346.16C248.334 346.107 247.792 345.866 247.367 345.473C246.942 345.081 246.658 344.56 246.56 343.99C246 342.13 245.67 341.55 245.27 341.15C245.666 342.547 245.822 344.001 245.73 345.45C246.135 345.862 246.651 346.148 247.215 346.274C247.779 346.4 248.367 346.361 248.91 346.16Z" fill="black"/>
<path d="M90.0898 372.32C92.2698 389.61 98.5298 400.11 110.9 409.52C123.27 418.93 140.4 424 148 426.87C155.6 429.74 161.35 433.37 166.48 428.54C171.61 423.71 170.63 413.87 179.76 405.54C188.89 397.21 192.11 394.84 192.06 389.15C191.98 381.63 184.78 382.2 182.62 383.44C182.62 383.44 180.62 380.34 175.33 381.81C172.627 382.624 170.348 384.461 168.98 386.93C168.98 386.93 165.41 386.56 161.7 390.54C158.8 393.65 153.7 401.54 153.7 401.54C153.7 401.54 161.32 390.54 157.59 380.01C153.16 367.49 146.75 368.38 146.75 368.38C146.75 368.38 149.38 366.86 156.66 367.77C156.66 367.77 153.29 358.77 139.89 357.01C135.979 356.518 132.008 356.921 128.277 358.189C124.545 359.457 121.151 361.557 118.35 364.33L90.0898 372.32Z" fill="#D3D3D3"/>
<path opacity="0.15" d="M171.199 384.14C170.306 384.938 169.556 385.881 168.979 386.93C171.849 386.88 175.329 387.13 177.109 392.3C177.109 392.3 179.349 386.47 171.199 384.14Z" fill="black"/>
<path opacity="0.15" d="M184.179 389.35C184.179 389.35 186.809 387.68 184.979 382.75C184.156 382.831 183.356 383.065 182.619 383.44C183.33 384.23 183.842 385.179 184.114 386.206C184.385 387.234 184.407 388.312 184.179 389.35Z" fill="black"/>
<path d="M176.23 399.47C172.935 400.445 169.925 402.202 167.457 404.593C164.99 406.985 163.138 409.938 162.06 413.2C159.44 420.49 160.75 425.2 163.68 425.77C166.61 426.34 167.99 425.87 170.32 421.89C172.16 416.99 173.83 410.95 179.76 405.54C181.51 403.94 183.05 402.54 184.38 401.33C184 399.28 181.16 398 176.23 399.47Z" fill="#F28F8F"/>
<path d="M173.859 393.26C171.859 392.57 170.069 397.26 172.369 398.06C174.279 398.69 176.529 394.18 173.859 393.26Z" fill="#F28F8F"/>
<path d="M181.92 390.79C179.92 390.1 178.13 394.79 180.43 395.6C182.34 396.23 184.59 391.71 181.92 390.79Z" fill="#F28F8F"/>
<path d="M188.2 390.3C186.2 389.61 184.4 394.3 186.71 395.1C188.62 395.73 190.86 391.22 188.2 390.3Z" fill="#F28F8F"/>
<path opacity="0.05" d="M160.649 428.54C148.779 425.98 150.369 419.54 145.059 415.76C139.749 411.98 127.919 413.39 108.949 397.87C89.9792 382.35 89.0992 348.67 101.219 334C93.5692 343.41 88.6092 355.54 90.0892 372.33C90.3235 375.003 90.7953 377.65 91.4992 380.24C94.4992 393 100.499 401.65 110.899 409.53C123.279 418.93 140.399 424.04 147.999 426.88C155.599 429.72 161.349 433.38 166.479 428.55C166.889 428.157 167.264 427.729 167.599 427.27C166.589 427.946 165.451 428.407 164.256 428.626C163.06 428.844 161.833 428.815 160.649 428.54Z" fill="black"/>
<path opacity="0.15" d="M205.4 345.41C199.21 336.9 194.34 332.92 186.83 328.72V323.85C185.7 324.24 184.58 324.66 183.49 325.11C173.093 329.245 164.342 336.679 158.58 346.27C181.44 344.55 191.73 356.21 194.28 362.92C196.07 367.63 197.56 371.25 200.36 371.09C201.077 371.104 201.772 370.847 202.308 370.37C202.843 369.894 203.18 369.233 203.25 368.52C205.25 370.24 208.12 368.99 208.1 366.63C208.6 366.849 209.159 366.898 209.69 366.77C210.221 366.642 210.695 366.343 211.04 365.92C211.485 365.286 211.795 364.568 211.952 363.809C212.108 363.051 212.108 362.268 211.95 361.51C211.5 357 209 350.39 205.4 345.41Z" fill="black"/>
<path d="M212.899 358.16C212.459 353.64 209.979 347.03 206.359 342.06C200.159 333.55 195.299 329.57 187.779 325.37V319.45C187.779 319.45 160.689 325 160.189 343C183.779 340.83 192.639 352.8 195.189 359.62C196.979 364.33 198.469 367.95 201.269 367.79C201.986 367.804 202.681 367.547 203.217 367.07C203.753 366.594 204.089 365.933 204.159 365.22C206.159 366.94 209.029 365.69 209.009 363.33C209.51 363.549 210.068 363.598 210.599 363.47C211.13 363.342 211.604 363.043 211.949 362.62C212.999 361.35 213.059 359.76 212.899 358.16Z" fill="#D3D3D3"/>
<path opacity="0.15" d="M212 362.57V362.52C211.775 362.613 211.534 362.658 211.292 362.652C211.049 362.646 210.81 362.589 210.591 362.486C210.372 362.382 210.176 362.234 210.018 362.05C209.859 361.867 209.74 361.652 209.67 361.42C208.81 359.66 208.53 358.82 208.1 358.42C208.673 359.971 208.984 361.607 209.02 363.26C209.523 363.491 210.088 363.549 210.627 363.424C211.167 363.299 211.649 362.999 212 362.57Z" fill="black"/>
<path opacity="0.15" d="M207.489 365.71C206.897 365.688 206.329 365.473 205.872 365.097C205.415 364.722 205.094 364.206 204.959 363.63C204.279 361.76 203.899 361.19 203.469 360.81C203.956 362.212 204.203 363.686 204.199 365.17C204.637 365.566 205.181 365.828 205.764 365.924C206.348 366.019 206.946 365.945 207.489 365.71Z" fill="black"/>
<path opacity="0.15" d="M167.219 329.19C176.079 331.24 185.449 330.57 193.329 328.8C191.619 327.61 189.799 326.5 187.779 325.37V319.45C187.779 319.45 175.399 322 167.219 329.19Z" fill="black"/>
<path d="M193.619 260.23C196.349 251.58 208.289 240.67 218.349 243.84C224.009 245.62 221.739 266.51 221.739 266.51C221.739 266.51 203.349 267.92 193.619 260.23Z" fill="#D3D3D3"/>
<path opacity="0.15" d="M193.619 260.23C196.349 251.58 208.289 240.67 218.349 243.84C224.009 245.62 221.739 266.51 221.739 266.51C221.739 266.51 203.349 267.92 193.619 260.23Z" fill="black"/>
<path d="M202.17 264.47C211.43 267.3 221.74 266.47 221.74 266.47C221.74 266.47 224.01 245.58 218.35 243.8C214.68 243.3 205.78 248.89 202.17 264.47Z" fill="#FFA8A7"/>
<path d="M214.061 256.78C213.201 254.46 214.861 251.47 214.861 251.47C211.471 251.47 207.051 254.95 206.641 260.56C206.641 260.56 213.551 268.88 220.641 264.47C220.911 263.28 221.414 262.155 222.121 261.16C222.181 259.72 222.221 258.1 222.191 256.43C219.485 255.995 216.719 256.114 214.061 256.78Z" fill="#F28F8F"/>
<path d="M170.17 268.47C162.64 263.47 146.5 262.36 140.62 271.12C137.31 276.05 152.16 290.96 152.16 290.96C152.16 290.96 167.37 280.55 170.17 268.47Z" fill="#D3D3D3"/>
<path opacity="0.15" d="M170.17 268.47C162.64 263.47 146.5 262.36 140.62 271.12C137.31 276.05 152.16 290.96 152.16 290.96C152.16 290.96 167.37 280.55 170.17 268.47Z" fill="black"/>
<path d="M166.14 277.12C160.67 285.12 152.14 290.96 152.14 290.96C152.14 290.96 137.29 276.05 140.6 271.12C143.15 268.4 153.59 267.21 166.14 277.12Z" fill="#FFA8A7"/>
<path d="M148.52 274.62C148.52 274.62 151.69 275.92 152.47 278.27C152.47 278.27 147.87 280.27 145.6 283.47C146.45 284.57 147.32 285.61 148.13 286.56C149.595 286.83 150.971 287.463 152.13 288.4C160.42 287.4 160.13 277.18 160.13 277.18C157.21 273 151.17 272.5 148.52 274.62Z" fill="#F28F8F"/>
<path d="M201.89 322.07C192.26 325.46 177.89 327.74 165.2 323.79C150.05 319.07 149.2 298.27 152.9 288.69C156.6 279.11 164.15 269.35 181.48 263.24C198.81 257.13 210.83 260 219.7 265.16C228.57 270.32 240.96 287.05 232.11 300.22C224.68 311.26 211.52 318.68 201.89 322.07Z" fill="#D3D3D3"/>
<path d="M201.811 319.9C221.001 313.13 220.001 301.9 215.151 297.38C210.301 292.86 202.261 291.88 193.081 295.11C183.901 298.34 178.261 304.17 177.301 310.71C176.341 317.25 182.611 326.66 201.811 319.9Z" fill="#F0F0F0"/>
<path d="M196.561 311.86C196.561 311.86 197.341 315.11 199.761 314.3C202.181 313.49 200.761 310.42 200.761 310.42L197.761 308.24L196.561 311.86Z" fill="#F28F8F"/>
<path d="M196.441 304.69L191.931 304.19C191.766 304.171 191.616 304.088 191.513 303.959C191.41 303.83 191.362 303.664 191.381 303.5C191.399 303.336 191.483 303.185 191.612 303.082C191.741 302.979 191.906 302.931 192.071 302.95L196.001 303.39L198.851 300.62C198.909 300.562 198.977 300.516 199.053 300.484C199.128 300.453 199.209 300.437 199.291 300.437C199.373 300.437 199.454 300.453 199.529 300.484C199.605 300.516 199.673 300.562 199.731 300.62C199.846 300.738 199.91 300.896 199.91 301.06C199.91 301.224 199.846 301.382 199.731 301.5L196.441 304.69Z" fill="#455A64"/>
<path d="M193.181 314C192.124 313.999 191.093 313.67 190.23 313.06C189.367 312.449 188.714 311.586 188.361 310.59C188.306 310.434 188.316 310.262 188.389 310.113C188.461 309.964 188.589 309.849 188.746 309.795C188.902 309.741 189.074 309.751 189.223 309.823C189.372 309.895 189.486 310.024 189.541 310.18C189.882 311.147 190.592 311.938 191.517 312.381C192.442 312.824 193.504 312.881 194.471 312.54C195.437 312.199 196.229 311.488 196.672 310.564C197.114 309.639 197.172 308.577 196.831 307.61L195.641 304.23C195.612 304.153 195.599 304.071 195.602 303.988C195.606 303.906 195.625 303.825 195.66 303.75C195.695 303.676 195.745 303.609 195.806 303.553C195.867 303.498 195.939 303.456 196.017 303.428C196.094 303.401 196.177 303.39 196.259 303.395C196.342 303.4 196.422 303.421 196.496 303.457C196.57 303.494 196.636 303.545 196.69 303.607C196.744 303.669 196.785 303.742 196.811 303.82L198.001 307.2C198.224 307.832 198.32 308.502 198.284 309.172C198.248 309.841 198.081 310.497 197.791 311.102C197.501 311.707 197.095 312.248 196.595 312.696C196.096 313.143 195.513 313.488 194.881 313.71C194.335 313.904 193.76 314.003 193.181 314Z" fill="#455A64"/>
<path d="M201.641 311C200.879 310.998 200.128 310.827 199.441 310.5C198.834 310.212 198.291 309.807 197.843 309.307C197.395 308.808 197.051 308.224 196.831 307.59L195.641 304.21C195.612 304.133 195.599 304.051 195.602 303.968C195.605 303.886 195.625 303.805 195.66 303.73C195.695 303.656 195.745 303.589 195.806 303.533C195.867 303.478 195.939 303.436 196.017 303.408C196.094 303.381 196.177 303.37 196.259 303.375C196.341 303.38 196.422 303.401 196.496 303.437C196.57 303.474 196.636 303.525 196.69 303.587C196.744 303.649 196.785 303.722 196.811 303.8L198.001 307.18C198.171 307.661 198.436 308.104 198.779 308.481C199.122 308.859 199.538 309.165 200.001 309.38C200.69 309.709 201.462 309.827 202.218 309.718C202.975 309.609 203.682 309.279 204.251 308.769C204.82 308.259 205.225 307.591 205.416 306.851C205.606 306.111 205.573 305.331 205.321 304.61C205.266 304.455 205.276 304.284 205.347 304.136C205.418 303.988 205.545 303.874 205.701 303.82C205.777 303.792 205.859 303.779 205.941 303.783C206.022 303.787 206.102 303.807 206.176 303.843C206.25 303.878 206.316 303.928 206.37 303.989C206.424 304.051 206.465 304.122 206.491 304.2C206.939 305.477 206.862 306.88 206.277 308.1C205.692 309.321 204.647 310.259 203.371 310.71C202.816 310.908 202.23 311.006 201.641 311Z" fill="#455A64"/>
<path d="M215.06 285.08C215.354 285.916 215.393 286.82 215.173 287.679C214.953 288.537 214.484 289.311 213.824 289.903C213.164 290.494 212.344 290.877 211.466 291.002C210.589 291.127 209.694 290.99 208.895 290.606C208.096 290.223 207.429 289.611 206.978 288.848C206.527 288.086 206.312 287.206 206.36 286.321C206.409 285.436 206.719 284.586 207.251 283.877C207.783 283.169 208.513 282.634 209.35 282.34C210.47 281.947 211.701 282.014 212.772 282.528C213.842 283.042 214.665 283.96 215.06 285.08Z" fill="#455A64"/>
<path d="M169.66 301.07C169.955 301.903 170.491 302.63 171.199 303.158C171.907 303.687 172.756 303.994 173.638 304.041C174.52 304.087 175.397 303.871 176.157 303.42C176.916 302.968 177.525 302.302 177.906 301.505C178.287 300.708 178.424 299.815 178.298 298.941C178.172 298.066 177.79 297.248 177.2 296.591C176.61 295.933 175.838 295.465 174.982 295.246C174.126 295.027 173.224 295.067 172.39 295.36C171.272 295.756 170.356 296.58 169.844 297.65C169.333 298.721 169.266 299.951 169.66 301.07Z" fill="#455A64"/>
<path d="M156.61 301.83C156.487 301.831 156.366 301.807 156.253 301.761C156.14 301.714 156.037 301.646 155.95 301.56C152.53 298.07 146.76 294.49 138.71 297.3C138.476 297.382 138.22 297.368 137.997 297.261C137.774 297.155 137.602 296.963 137.52 296.73C137.438 296.497 137.451 296.24 137.558 296.017C137.665 295.794 137.856 295.622 138.09 295.54C147.09 292.42 153.48 296.38 157.28 300.25C157.367 300.336 157.436 300.439 157.483 300.553C157.53 300.666 157.555 300.787 157.555 300.91C157.555 301.033 157.53 301.154 157.483 301.267C157.436 301.381 157.367 301.484 157.28 301.57C157.192 301.657 157.087 301.725 156.972 301.77C156.857 301.815 156.733 301.835 156.61 301.83Z" fill="#455A64"/>
<path d="M154.54 304.15C154.367 304.153 154.196 304.105 154.05 304.01C150.96 302.11 145.34 302.1 142.39 303.37C142.278 303.42 142.157 303.447 142.034 303.45C141.912 303.452 141.79 303.431 141.675 303.386C141.561 303.342 141.457 303.275 141.368 303.19C141.28 303.104 141.209 303.003 141.16 302.89C141.078 302.661 141.082 302.409 141.173 302.182C141.263 301.956 141.433 301.77 141.65 301.66C145.03 300.21 151.36 300.16 155.03 302.43C155.24 302.56 155.389 302.768 155.445 303.008C155.501 303.248 155.46 303.5 155.33 303.71C155.248 303.846 155.132 303.958 154.994 304.035C154.855 304.112 154.699 304.152 154.54 304.15Z" fill="#455A64"/>
<path d="M140.119 312C139.929 311.997 139.744 311.936 139.59 311.825C139.435 311.715 139.317 311.56 139.252 311.381C139.187 311.203 139.178 311.008 139.225 310.824C139.273 310.64 139.376 310.475 139.519 310.35C145.049 305.69 152.209 304.83 156.519 306C156.742 306.077 156.927 306.236 157.037 306.445C157.147 306.654 157.174 306.897 157.112 307.124C157.049 307.352 156.903 307.547 156.702 307.671C156.501 307.794 156.261 307.837 156.029 307.79C152.169 306.79 145.739 307.55 140.719 311.79C140.551 311.93 140.338 312.004 140.119 312Z" fill="#455A64"/>
<path d="M224.46 277.93H224.37C224.127 277.907 223.902 277.789 223.745 277.602C223.588 277.415 223.511 277.174 223.53 276.93C224.06 271.53 226.53 264.43 235.53 261.24C235.762 261.159 236.016 261.172 236.238 261.277C236.46 261.383 236.631 261.571 236.714 261.802C236.797 262.033 236.785 262.288 236.682 262.51C236.578 262.733 236.391 262.905 236.16 262.99C228.16 265.86 225.87 272.25 225.39 277.11C225.365 277.338 225.256 277.548 225.084 277.7C224.912 277.852 224.69 277.934 224.46 277.93Z" fill="#455A64"/>
<path d="M227.52 278.44C227.415 278.437 227.31 278.42 227.21 278.39C227.094 278.35 226.987 278.287 226.896 278.205C226.805 278.123 226.732 278.024 226.679 277.913C226.627 277.802 226.598 277.682 226.593 277.559C226.587 277.437 226.607 277.315 226.65 277.2C228.08 273.14 233.04 269.2 236.59 268.2C236.708 268.167 236.831 268.157 236.953 268.172C237.075 268.186 237.193 268.225 237.3 268.285C237.407 268.346 237.501 268.427 237.576 268.524C237.652 268.621 237.707 268.732 237.74 268.85C237.773 268.968 237.782 269.091 237.768 269.212C237.753 269.333 237.714 269.45 237.654 269.556C237.593 269.662 237.512 269.755 237.415 269.83C237.318 269.904 237.208 269.959 237.09 269.99C233.99 270.86 229.61 274.38 228.4 277.8C228.339 277.986 228.221 278.147 228.063 278.262C227.905 278.377 227.715 278.439 227.52 278.44Z" fill="#455A64"/>
<path d="M228.47 282.39C228.275 282.39 228.085 282.327 227.93 282.21C227.83 282.139 227.746 282.048 227.682 281.944C227.618 281.84 227.574 281.724 227.555 281.604C227.535 281.483 227.54 281.359 227.568 281.24C227.596 281.121 227.648 281.009 227.72 280.91C230.35 277.3 236.45 273.51 243.72 273.66C243.966 273.66 244.203 273.758 244.377 273.932C244.552 274.107 244.65 274.343 244.65 274.59C244.65 274.837 244.552 275.073 244.377 275.248C244.203 275.422 243.966 275.52 243.72 275.52C237.14 275.37 231.65 278.78 229.3 282.01C229.206 282.139 229.08 282.242 228.934 282.309C228.789 282.375 228.629 282.403 228.47 282.39Z" fill="#455A64"/>
<path d="M208.32 260.69C209.12 257.03 212.58 253.51 215.97 253.51C215.97 253.51 214.3 256.51 215.16 258.82C215.16 258.82 223.81 256.55 226.93 260.56C226.93 260.56 223.01 261.28 221.74 266.51C214.65 270.92 208.32 260.69 208.32 260.69Z" fill="#D3D3D3"/>
<path d="M158.999 278C156.089 275.64 151.189 275.05 148.539 277.17C148.539 277.17 151.709 278.47 152.489 280.82C152.489 280.82 144.319 284.44 144.379 289.53C144.379 289.53 147.919 287.66 152.179 290.95C160.449 290 158.999 278 158.999 278Z" fill="#D3D3D3"/>
<path d="M189.34 261C188.16 261.27 188.07 259.08 188.61 256.36C189.1 253.9 191.08 248.99 187.61 249.05C184.14 249.11 180.41 252.23 178.95 258.17C177.98 256.898 177.254 255.457 176.81 253.92C176.26 251.68 173.46 251.48 172.23 255.92C171.29 259.31 172.92 262.7 173.82 264.12C174.32 264.91 174.11 266.22 172.44 267.12C172.44 267.12 179.65 269.59 184.51 267.12C189.37 264.65 189.34 261 189.34 261Z" fill="#D3D3D3"/>
<path d="M180.789 280C181.077 279.979 181.358 279.9 181.615 279.769C181.873 279.637 182.101 279.456 182.287 279.235C182.474 279.015 182.614 278.759 182.7 278.483C182.786 278.208 182.817 277.918 182.789 277.63C182.243 272.956 180.326 268.547 177.279 264.96C175.849 265.57 174.479 266.21 173.199 266.87C176.319 270.53 178.099 274.27 178.449 278.04C178.494 278.585 178.742 279.093 179.144 279.463C179.546 279.833 180.073 280.039 180.619 280.04L180.789 280Z" fill="#455A64"/>
<path d="M193.999 272.55C194.098 273.045 194.366 273.491 194.756 273.811C195.145 274.132 195.634 274.308 196.139 274.31C196.279 274.325 196.42 274.325 196.559 274.31C196.84 274.255 197.108 274.145 197.346 273.987C197.585 273.828 197.79 273.624 197.95 273.386C198.109 273.149 198.221 272.882 198.277 272.601C198.334 272.32 198.334 272.031 198.279 271.75C197.357 267.515 195.281 263.617 192.279 260.49C190.639 260.76 188.959 261.11 187.199 261.56C190.909 265 193.199 268.67 193.999 272.55Z" fill="#455A64"/>
<path d="M180.119 263.76C182.409 266.29 186.069 271.14 186.939 277.03C187.014 277.547 187.272 278.019 187.667 278.361C188.062 278.703 188.567 278.891 189.089 278.89H189.419C189.991 278.804 190.504 278.494 190.848 278.029C191.191 277.564 191.335 276.982 191.249 276.41C190.318 271.182 188.008 266.297 184.559 262.26C183.559 262.56 182.559 262.89 181.479 263.26L180.119 263.76Z" fill="#455A64"/>
<path d="M101.309 404.62H101.149C100.936 404.6 100.728 404.538 100.539 404.438C100.349 404.337 100.182 404.2 100.045 404.035C99.9085 403.87 99.8059 403.679 99.7432 403.474C99.6804 403.269 99.6588 403.053 99.6795 402.84C100.339 395.96 107.099 383.99 123.049 379.21C138.509 374.57 154.699 379.8 161.419 387.53C161.575 387.69 161.697 387.88 161.777 388.088C161.857 388.297 161.894 388.519 161.885 388.742C161.875 388.965 161.821 389.184 161.724 389.385C161.628 389.587 161.491 389.766 161.323 389.913C161.154 390.059 160.958 390.17 160.745 390.238C160.532 390.306 160.308 390.33 160.086 390.308C159.864 390.286 159.648 390.219 159.453 390.111C159.258 390.003 159.086 389.856 158.949 389.68C153.999 383.98 139.459 377.68 123.949 382.34C109.549 386.66 103.469 397.15 102.889 403.15C102.849 403.545 102.666 403.911 102.375 404.181C102.085 404.452 101.706 404.608 101.309 404.62Z" fill="#455A64"/>
<path d="M117.32 417.12C116.888 417.12 116.474 416.95 116.167 416.647C115.86 416.344 115.685 415.931 115.68 415.5C115.68 412.15 118.15 400.73 126.48 393.56C130.887 389.75 136.314 387.316 142.09 386.557C147.866 385.798 153.738 386.748 158.98 389.29C159.338 389.511 159.599 389.861 159.706 390.268C159.813 390.676 159.76 391.109 159.557 391.478C159.354 391.847 159.016 392.123 158.615 392.25C158.213 392.377 157.778 392.345 157.4 392.16C152.752 389.913 147.546 389.078 142.429 389.761C137.311 390.444 132.506 392.613 128.61 396C121.25 402.33 118.93 412.6 118.95 415.43C118.952 415.863 118.783 416.28 118.48 416.589C118.176 416.898 117.763 417.075 117.33 417.08L117.32 417.12Z" fill="#455A64"/>
<path d="M96.3809 251.94C91.5509 263.32 95.9709 287.51 105.881 302.42C116.581 318.52 138.281 338.79 162.621 347.79C162.976 347.927 163.273 348.184 163.46 348.516C163.647 348.848 163.712 349.235 163.645 349.61C163.577 349.985 163.381 350.325 163.09 350.572C162.8 350.818 162.432 350.955 162.051 350.96C161.86 350.96 161.67 350.926 161.491 350.86C136.491 341.6 114.151 320.77 103.161 304.23C92.0009 287.5 87.7009 260.59 94.2409 248.87C94.7105 248.019 95.256 247.213 95.8709 246.46C96.2149 248.266 96.3857 250.101 96.3809 251.94Z" fill="#455A64"/>
<path d="M350.012 73.17L360.032 67.39V356.5L350.022 362.28L350.012 73.17Z" fill="#37474F"/>
<path d="M334.99 353.6L350.02 362.28L350.01 73.17L346.38 71.07L345.16 83.63L343.91 69.65L334.99 64.5V353.6Z" fill="#455A64"/>
<path opacity="0.1" d="M350.002 269.13V233.49C349.422 219.64 348.752 201.49 348.862 193.56L345.392 191.56C345.392 203.65 344.032 225.93 343.292 240.95C342.292 262.24 346.062 289.75 346.222 300.85C346.382 311.95 346.222 360.09 346.222 360.09L347.932 361.09C347.932 361.09 347.422 300.55 348.862 284.47C349.362 278.93 349.732 273.72 350.002 269.13ZM346.572 276.67C344.282 275.67 344.842 221.86 347.212 222.67C349.092 223.38 348.882 277.68 346.592 276.67H346.572Z" fill="black"/>
<path d="M346.38 71.07L343.91 69.65L345.16 83.63L346.38 71.07Z" fill="#263238"/>
<path opacity="0.05" d="M339.851 67.3C339.641 82.78 342.681 93.16 342.621 114.68C342.621 114.68 342.281 99.46 340.231 88.18C338.878 80.9203 338.116 73.5629 337.951 66.18L339.851 67.3Z" fill="white"/>
<path opacity="0.05" d="M350 73.17C350 78.27 349.78 89.9 349.15 97.06C348.557 107.016 348.481 116.996 348.92 126.96C348.92 126.96 347.13 110.07 347.73 100.06C348.33 90.05 348.32 72.19 348.32 72.19L350 73.17Z" fill="white"/>
<path opacity="0.1" d="M335 122V140.54C336.59 130.77 339.08 120.46 339.52 116.07C340.18 109.5 339.08 97.43 337.96 90.61C336.84 83.79 334.96 72.29 335.29 64.71L335 64.5V82.93L335.15 84.12C336.39 93.24 337.04 106.74 336.58 112.76C336.273 115.874 335.745 118.961 335 122Z" fill="black"/>
<path opacity="0.05" d="M340.872 254C340.572 260.8 343.482 286.16 344.042 294.15C345.142 309.76 344.642 359.15 344.642 359.15L342.642 357.98C342.642 357.98 342.882 302.14 342.642 295.65C342.292 286.69 340.002 261.87 340.872 254Z" fill="white"/>
<path opacity="0.1" d="M342.621 190.46C342.621 202.82 342.231 226.26 340.621 236.15C338.449 250.774 338.113 265.612 339.621 280.32C340.742 291.284 340.936 302.323 340.201 313.32C340.201 313.32 339.591 294.26 337.861 278.66C336.36 263.14 336.407 247.51 338.001 232C339.361 216.92 339.751 188.23 339.751 188.23L342.621 190.46Z" fill="black"/>
<path opacity="0.05" d="M337.372 187.43C337.372 187.43 337.142 207.06 336.792 213.58C336.442 220.1 335.492 232.83 335.492 232.83C335.492 232.83 335.182 211.93 335.492 205.22C335.802 198.51 335.352 185.9 335.352 185.9L337.372 187.43Z" fill="white"/>
<path opacity="0.05" d="M337.371 295.76C338.491 306.26 338.641 318.55 338.941 323.19C339.241 327.83 339.701 356.32 339.701 356.32L337.371 355C337.371 355 337.171 325.49 337.101 318.86C337.001 310.33 337.781 301.4 337.371 295.76Z" fill="white"/>
<path opacity="0.1" d="M342.571 71.78C343.081 79.93 344.981 87.78 345.571 93.52C346.161 99.26 346.571 116.93 346.571 116.93L344.571 115.8C344.571 115.8 345.001 99.63 344.001 91.74C343.001 83.85 342.341 77 342.571 71.78Z" fill="black"/>
<path d="M360.03 67.39L345.01 58.71L334.99 64.5L350.01 73.17L360.03 67.39Z" fill="#263238"/>
<path opacity="0.15" d="M360.031 232.18L350.021 237.96V252.01L360.031 246.22V232.18Z" fill="black"/>
<path opacity="0.15" d="M350.02 237.96L334.99 229.29V243.33L350.02 252.01V237.96Z" fill="black"/>
<path d="M252.781 138.79L438.041 245.71L448.781 239.53L263.541 132.57L252.781 138.79Z" fill="#263238"/>
<path d="M244.061 131.53L430.491 239.12V196.04L413.991 186.52L412.191 199.08L411.111 184.85L244.061 88.45L244.071 116.31L249.431 121.65L244.061 120.09V131.53Z" fill="#455A64"/>
<path opacity="0.05" d="M430.49 232C420.79 226.38 379.99 203.36 375.29 201.12C361.63 194.58 349.85 189.44 331.57 179.03C331.57 179.03 340.05 185.03 358.33 194.51C366.91 198.93 374.77 202.71 378.9 204.76C383.03 206.81 430.49 234.14 430.49 234.14V232Z" fill="white"/>
<path opacity="0.1" d="M244.102 97.69L260.012 106.89C274.262 115.14 283.842 121.08 290.012 126.76C296.182 132.44 308.182 139.63 313.562 142.56C313.562 142.56 307.242 140.26 295.402 132.93C283.562 125.6 281.402 121.77 264.562 112.04L244.102 100.19V97.69Z" fill="black"/>
<path opacity="0.1" d="M430.492 226.84L380.842 198.19C375.442 195.07 362.732 192.62 355.762 188.59C359.575 191.223 363.683 193.401 368.002 195.08C375.092 197.8 423.842 225.32 430.482 229.15L430.492 226.84Z" fill="black"/>
<path opacity="0.05" d="M249.43 121.65L296.91 149.11C307.68 155.34 325.58 167.85 340.66 176.02C355.74 184.19 366.86 188.88 366.86 188.88C366.86 188.88 352.43 184.77 340.5 177.88C328.57 170.99 306.85 157.4 293.75 149.82L244.07 121.09V120.09L249.43 121.65Z" fill="white"/>
<path opacity="0.05" d="M430.491 211.43C420.491 205.64 387.371 186.55 379.491 181.97C371.611 177.39 359.491 168.97 346.081 161.17C335.543 155.043 324.547 149.741 313.191 145.31C307.113 142.809 301.189 139.947 295.451 136.74C302.475 141.434 309.877 145.535 317.581 149C330.891 155.05 346.831 163.38 360.981 173.44C375.131 183.5 430.491 214.26 430.491 214.26V211.43Z" fill="white"/>
<path opacity="0.05" d="M244.111 91.9C244.111 91.9 304.041 125.9 319.021 134.53C334.001 143.16 353.631 155.25 353.631 155.25C353.631 155.25 322.001 138.4 290.261 120.07L244.111 93.37V91.9Z" fill="white"/>
<path opacity="0.1" d="M430.49 203.34C430.49 203.34 361.26 163.34 341.74 152.08C322.22 140.82 300.49 130.37 300.49 130.37C300.49 130.37 316.7 141.09 340.67 155C347.77 159.12 430.49 206.88 430.49 206.88V203.35" fill="black"/>
<path opacity="0.1" d="M244.061 124.76L297.711 155.76C308.711 162.12 337.241 179.51 344.041 183.82C344.041 183.82 315.951 169.06 278.591 147.45L244.061 127.45V124.76Z" fill="black"/>
<path opacity="0.1" d="M244.08 115L289.27 141.14C299.78 147.22 324.27 163.75 335.08 169.98C345.89 176.21 416.97 214.92 430.49 222.74V219.74C422.1 214.88 353.99 170.67 337.72 161.25C321.45 151.83 304.79 147.11 294.65 141.25L244.08 112V115ZM314.4 153.47C314.4 151.96 328.28 158.3 337.82 163.81C346.23 168.68 362.94 179.93 362.94 181.33C362.94 182.73 346.61 173.97 337.82 168.88C329.03 163.79 314.4 155 314.4 153.46V153.47Z" fill="black"/>
<path opacity="0.05" d="M244.111 103.41C250.681 107.21 271.111 118.79 276.851 123.16C282.591 127.53 288.451 134.58 299.451 140.94C299.451 140.94 288.101 136.2 281.571 130.01C275.041 123.82 244.051 106.48 244.051 106.48L244.111 103.41Z" fill="white"/>
<path opacity="0.2" d="M263.621 99.74L411.241 186.66L412.241 190.69L413.751 188.15L428.621 197.44L430.491 239.12V196.04L413.991 186.52L412.551 185.66L411.111 184.85L263.621 99.74Z" fill="white"/>
<path d="M441.23 232.91L430.49 239.12V196.04L441.23 189.71V232.91Z" fill="#37474F"/>
<path d="M413.991 186.52L412.191 199.08L411.111 184.85L412.551 185.66L413.991 186.52Z" fill="#263238"/>
<path d="M411.111 184.85L412.551 185.66L412.191 199.08L411.111 184.85Z" fill="#37474F"/>
<path d="M244.07 116.31L245.67 119.28L244.07 120.09L249.43 121.65L244.07 116.31Z" fill="#37474F"/>
<path d="M244.07 116.31L245.67 119.28L249.43 121.65L244.07 116.31Z" fill="#263238"/>
<path d="M435.04 232.84L430.49 233L422.15 229.46L430.49 237.5L435.04 232.84Z" fill="#263238"/>
<path d="M435.04 232.84L430.49 235.14L422.15 229.46L430.49 233L435.04 232.84Z" fill="#37474F"/>
<path d="M244.061 88.45L430.491 196.04L441.231 189.71L254.921 82.18L244.061 88.45Z" fill="#263238"/>
<path d="M249.061 89.04L434.321 195.96V152.88L267.451 56.58L265.651 69.14L264.571 54.91L249.061 45.96V89.04Z" fill="#455A64"/>
<path opacity="0.05" d="M434.32 188.79C424.62 183.18 383.83 160.16 379.12 157.92C365.46 151.38 353.68 146.24 335.41 135.83C335.41 135.83 343.88 141.83 362.16 151.31C370.74 155.73 378.61 159.51 382.73 161.56C386.85 163.61 434.32 190.94 434.32 190.94V188.79Z" fill="white"/>
<path opacity="0.1" d="M249.1 55.2L263.84 63.73C278.1 71.98 287.67 77.91 293.84 83.59C300.01 89.27 312 96.47 317.42 99.39C317.42 99.39 311.09 97.1 299.25 89.76C287.41 82.42 285.25 78.61 268.41 68.87L249.09 57.7L249.1 55.2Z" fill="black"/>
<path opacity="0.1" d="M434.32 183.68C424.13 177.78 390.06 158.15 384.67 155.03C379.28 151.91 366.56 149.46 359.59 145.43C363.406 148.064 367.517 150.242 371.84 151.92C378.93 154.64 427.69 182.16 434.32 185.99V183.68Z" fill="black"/>
<path opacity="0.05" d="M249.071 76.06L300.741 106C311.511 112.23 329.411 124.74 344.501 132.91C359.591 141.08 370.691 145.77 370.691 145.77C370.691 145.77 356.261 141.66 344.331 134.77C332.401 127.88 310.681 114.29 297.591 106.71L249.061 78.57L249.071 76.06Z" fill="white"/>
<path opacity="0.05" d="M434.322 168.27C424.322 162.48 391.202 143.39 383.322 138.81C375.442 134.23 363.322 125.81 349.912 118.01C339.369 111.878 328.366 106.576 317.002 102.15C310.923 99.6487 304.999 96.7869 299.262 93.58C306.298 98.2759 313.714 102.377 321.432 105.84C334.742 111.84 350.682 120.22 364.832 130.28C378.982 140.34 434.342 171.1 434.342 171.1L434.322 168.27Z" fill="white"/>
<path opacity="0.05" d="M249.112 49.41C307.002 82.2 306.742 82 322.862 91.36C337.862 100.03 357.462 112.09 357.462 112.09C357.462 112.09 325.782 95.24 294.102 76.91L249.102 50.91L249.112 49.41Z" fill="white"/>
<path opacity="0.1" d="M434.32 160.18C434.32 160.18 365.09 120.18 345.57 108.92C326.05 97.66 304.32 87.21 304.32 87.21C304.32 87.21 320.53 97.92 344.5 111.83C351.6 115.95 434.32 163.71 434.32 163.71V160.18Z" fill="black"/>
<path opacity="0.1" d="M249.061 82.27L301.541 112.63C312.541 118.99 341.071 136.37 347.871 140.69C347.871 140.69 319.781 125.93 282.421 104.32L249.051 85L249.061 82.27Z" fill="black"/>
<path opacity="0.1" d="M249.07 72.5L293.1 98C303.61 104.08 328.1 120.61 338.91 126.84C349.72 133.07 420.8 171.78 434.32 179.6V176.6C425.93 171.75 357.83 127.53 341.55 118.12C325.27 108.71 308.63 103.98 298.48 98.12L249.08 69.54L249.07 72.5ZM318.24 110.3C318.24 108.79 332.12 115.12 341.65 120.64C350.06 125.51 366.77 136.76 366.77 138.16C366.77 139.56 350.44 130.8 341.65 125.71C332.86 120.62 318.23 111.81 318.24 110.3Z" fill="black"/>
<path opacity="0.05" d="M249.101 60.92C255.681 64.72 274.981 75.62 280.681 80C286.381 84.38 292.281 91.42 303.281 97.78C303.281 97.78 291.931 93.04 285.401 86.84C278.871 80.64 249.051 64 249.051 64L249.101 60.92Z" fill="white"/>
<path d="M267.45 56.58L266.01 55.75L264.57 54.91L265.65 69.14L267.45 56.58Z" fill="#263238"/>
<path opacity="0.2" d="M267.451 56.58L432.461 154.28L434.321 195.96V152.88L267.451 56.58Z" fill="white"/>
<path d="M434.321 166.48L424.201 163.48L434.321 171.74V166.48Z" fill="#37474F"/>
<path d="M445.06 189.71L434.32 195.96V152.88L445.06 146.51V189.71Z" fill="#37474F"/>
<path d="M434.321 152.88L445.061 146.51L259.971 39.68L249.061 45.96L434.321 152.88Z" fill="#263238"/>
<path d="M434.32 166.48L437.19 167.5L434.32 171.74V166.48Z" fill="#37474F"/>
<path d="M437.191 167.5L434.321 169.16L424.201 163.48L434.321 171.74L437.191 167.5Z" fill="#263238"/>
<path d="M264.57 54.91L266.01 55.75L265.65 69.14L264.57 54.91Z" fill="#37474F"/>
<path d="M252.781 138.79L438.041 245.71V288.79L271.171 192.49L269.371 177.85L268.291 190.82L252.781 181.87V138.79Z" fill="#455A64"/>
<path opacity="0.05" d="M438 252.88C428.3 247.29 387.5 223.28 382.8 220.1C369.14 210.86 357.36 202.4 339.08 191.71C339.08 191.71 347.56 195.44 365.84 207.12C374.42 212.61 401.52 228.97 405.64 231.68C409.76 234.39 438 250.74 438 250.74V252.88Z" fill="white"/>
<path opacity="0.1" d="M252.82 172.67L267.56 181.17C281.81 189.38 291.39 194.5 297.56 195.97C303.73 197.44 315.73 204.07 321.11 207.37C315.389 203.1 309.333 199.297 303 196C291.15 189.66 289 191 272.16 181.29L252.84 170.15L252.82 172.67Z" fill="black"/>
<path opacity="0.1" d="M438.001 258C427.801 252.13 413.001 243.57 407.581 240.46C402.161 237.35 370.241 214.06 363.271 210.04C367.635 212.12 371.745 214.693 375.521 217.71C382.611 223.16 431.361 251.87 438.001 255.71V258Z" fill="black"/>
<path opacity="0.05" d="M252.79 151.78L304.46 181.56C315.23 187.76 333.13 195.93 348.21 205.17C363.29 214.41 374.41 222.56 374.41 222.56C374.41 222.56 360 210 348 203.13C336 196.26 314.36 184.77 301.26 177.22L252.74 149.22L252.79 151.78Z" fill="white"/>
<path opacity="0.05" d="M438 273.4L406.19 255.07C398.27 250.5 366.98 233.97 353.55 226.23C342.118 219.578 331.132 212.189 320.66 204.11C314.984 199.836 309.09 195.86 303 192.2C303 192.2 311.86 196.2 325.17 205.54C338.48 214.88 354.42 224.93 368.57 231.21C382.72 237.49 438 270.58 438 270.58V273.4Z" fill="white"/>
<path opacity="0.05" d="M252.831 178.48C252.831 178.48 311.591 213.05 326.571 221.68C341.551 230.31 361.181 240.92 361.181 240.92C361.181 240.92 329.501 221.18 297.811 202.92L252.811 176.99L252.831 178.48Z" fill="white"/>
<path opacity="0.1" d="M438 281.49L349.25 230.35C329.78 219.11 308 204.43 308 204.43C308 204.43 324.21 212.43 348.18 226.21C355.32 230.29 438 278 438 278V281.52" fill="black"/>
<path opacity="0.1" d="M252.781 145.56L305.261 175.81C316.261 182.15 344.791 197.7 351.591 201.24C351.591 201.24 323.501 183.56 286.141 162.04L252.771 142.81L252.781 145.56Z" fill="black"/>
<path opacity="0.1" d="M252.801 158.39L302.201 186.86C312.341 192.7 329.001 207.2 345.271 216.58C361.541 225.96 429.651 260.31 438.041 265.14V262.14C424.521 254.35 353.391 211.01 342.631 204.81C331.871 198.61 307.331 186.81 296.811 180.75L252.811 155.38L252.801 158.39ZM345.371 209C354.161 214.07 370.491 224.16 370.491 225.56C370.491 226.96 353.781 218.92 345.371 214.08C335.831 208.58 321.961 198.89 321.951 197.38C321.941 195.87 336.571 204 345.371 209Z" fill="black"/>
<path opacity="0.05" d="M252.821 167C259.401 170.79 278.701 182.18 284.401 184.38C290.101 186.58 296.001 186.38 307.001 192.71C307.001 192.71 295.651 184.34 289.121 182.99C282.591 181.64 252.771 163.87 252.771 163.87L252.821 167Z" fill="white"/>
<path d="M271.171 192.49L269.231 188.03L268.291 190.82L269.371 177.85L271.171 192.49Z" fill="#263238"/>
<path opacity="0.2" d="M271.17 149.41L436.17 247.11L438.04 288.79V245.71L271.17 149.41Z" fill="white"/>
<path d="M438.04 275.19L427.92 266.51L438.04 269.93V275.19Z" fill="#37474F"/>
<path d="M448.781 239.53L438.041 245.71V288.79L448.781 282.6V239.53Z" fill="#37474F"/>
<path d="M438.041 275.19L445.911 267.37L438.041 269.93V275.19Z" fill="#37474F"/>
<path d="M445.91 267.37L438.04 272.51L427.92 266.51L438.04 269.93L445.91 267.37Z" fill="#263238"/>
<path d="M268.291 190.82L269.231 188.03L269.371 177.85L268.291 190.82Z" fill="#37474F"/>
<path d="M340.002 118.8C342.832 120.427 345.351 122.543 347.442 125.05C349.511 127.551 351.246 130.311 352.602 133.26C353.96 136.285 354.966 139.456 355.602 142.71C356.271 145.961 356.669 149.263 356.792 152.58C356.865 155.167 356.902 157.833 356.902 160.58C356.902 163.327 356.865 165.91 356.792 168.33C356.712 171.199 356.313 174.05 355.602 176.83C355.124 179.027 354.091 181.066 352.602 182.75C351.24 184.144 349.39 184.955 347.442 185.01C345.362 185.11 342.882 184.327 340.002 182.66C337.169 181.04 334.65 178.927 332.562 176.42C330.49 173.917 328.755 171.154 327.402 168.2C326.043 165.179 325.037 162.011 324.402 158.76C323.733 155.508 323.335 152.207 323.212 148.89C323.138 146.423 323.102 143.797 323.102 141.01C323.102 138.223 323.138 135.583 323.212 133.09C323.291 130.218 323.69 127.364 324.402 124.58C324.879 122.386 325.912 120.351 327.402 118.67C328.76 117.271 330.612 116.46 332.562 116.41C334.642 116.343 337.122 117.14 340.002 118.8ZM346.172 161.8C346.318 156.86 346.318 151.887 346.172 146.88C346.101 145.43 345.957 143.985 345.742 142.55C345.545 141.245 345.21 139.964 344.742 138.73C344.293 137.562 343.669 136.47 342.892 135.49C342.097 134.482 341.116 133.637 340.002 133C339.152 132.425 338.147 132.124 337.122 132.14C336.763 132.142 336.41 132.225 336.09 132.385C335.769 132.544 335.489 132.775 335.272 133.06C334.745 133.911 334.385 134.854 334.212 135.84C333.969 137.126 333.842 138.431 333.832 139.74C333.638 144.54 333.638 149.51 333.832 154.65C333.863 156.09 333.99 157.527 334.212 158.95C334.396 160.264 334.731 161.553 335.212 162.79C335.679 163.961 336.312 165.059 337.092 166.05C337.886 167.046 338.864 167.881 339.972 168.51C340.817 169.095 341.824 169.399 342.852 169.38C343.225 169.34 343.585 169.221 343.909 169.031C344.233 168.842 344.514 168.586 344.732 168.28C345.256 167.485 345.597 166.583 345.732 165.64C345.978 164.367 346.126 163.076 346.172 161.78V161.8Z" fill="#263238"/>
<path d="M352.601 182.79C351.242 184.195 349.385 185.01 347.431 185.06C345.361 185.16 342.891 184.38 340.001 182.72C337.172 181.096 334.656 178.979 332.571 176.47C331.595 175.294 330.693 174.058 329.871 172.77L333.391 170.77C334.111 171.83 334.871 172.85 335.691 173.84C337.776 176.349 340.292 178.466 343.121 180.09C346.001 181.75 348.484 182.53 350.571 182.43C351.558 182.386 352.531 182.18 353.451 181.82C353.19 182.162 352.906 182.486 352.601 182.79Z" fill="#37474F"/>
<path d="M346.822 134L343.292 136.07C343.162 135.87 343.032 135.66 342.892 135.47C342.091 134.473 341.111 133.635 340.002 133C339.153 132.425 338.147 132.125 337.122 132.14C336.763 132.141 336.41 132.224 336.089 132.384C335.768 132.543 335.488 132.775 335.272 133.06C334.952 133.53 334.972 133.49 335.272 133.06C335.446 132.808 335.662 132.588 335.912 132.41L339.002 130C339.365 129.709 339.808 129.535 340.272 129.5C341.298 129.477 342.306 129.777 343.152 130.36C344.251 130.981 345.219 131.81 346.002 132.8C346.302 133.181 346.576 133.582 346.822 134Z" fill="#37474F"/>
<path d="M355.651 142.52C355.017 139.268 354.01 136.101 352.651 133.08C351.297 130.126 349.562 127.363 347.491 124.86C345.4 122.353 342.881 120.237 340.051 118.61C337.171 116.95 334.691 116.17 332.611 116.27C331.68 116.313 330.763 116.516 329.901 116.87C328.77 118.391 327.961 120.126 327.521 121.97C326.813 124.751 326.417 127.602 326.341 130.47C326.261 132.97 326.221 135.62 326.221 138.4C326.221 141.18 326.221 143.8 326.341 146.27C326.46 149.587 326.854 152.888 327.521 156.14C328.156 159.394 329.162 162.565 330.521 165.59C331.874 168.543 333.612 171.304 335.691 173.8C337.773 176.312 340.289 178.429 343.121 180.05C346.011 181.72 348.481 182.49 350.561 182.39C351.55 182.346 352.526 182.144 353.451 181.79C354.535 180.234 355.306 178.481 355.721 176.63C356.402 173.866 356.778 171.036 356.841 168.19C356.914 165.81 356.951 163.23 356.951 160.45C356.951 157.66 356.951 154.98 356.841 152.39C356.717 149.073 356.319 145.772 355.651 142.52ZM349.291 159.11C349.268 160.408 349.145 161.702 348.921 162.98C348.791 163.924 348.449 164.827 347.921 165.62C347.733 165.871 347.507 166.09 347.251 166.27C347.251 166.27 344.371 168.58 344.121 168.76C343.761 168.997 343.349 169.145 342.921 169.19C341.893 169.209 340.886 168.905 340.041 168.32C338.931 167.694 337.953 166.859 337.161 165.86C336.381 164.869 335.748 163.771 335.281 162.6C334.8 161.363 334.465 160.074 334.281 158.76C334.059 157.34 333.932 155.907 333.901 154.47C333.707 149.323 333.707 144.35 333.901 139.55C333.922 138.257 334.056 136.969 334.301 135.7C334.457 134.763 334.796 133.865 335.301 133.06C335.477 132.81 335.694 132.591 335.941 132.41C336.291 132.15 338.781 130.14 339.001 129.98C339.369 129.696 339.808 129.52 340.271 129.47C341.297 129.457 342.303 129.761 343.151 130.34C344.247 130.973 345.214 131.808 346.001 132.8C346.767 133.786 347.387 134.877 347.841 136.04C348.312 137.277 348.647 138.561 348.841 139.87C349.056 141.305 349.2 142.75 349.271 144.2C349.444 149.2 349.451 154.17 349.291 159.11Z" fill="#D3D3D3"/>
<path d="M302.701 160.29C302.208 159.964 301.824 159.497 301.601 158.95C301.296 158.328 301.138 157.643 301.141 156.95V147.9L283.001 137.45C282.505 137.127 282.121 136.659 281.901 136.11C281.595 135.488 281.438 134.803 281.441 134.11V124.7C281.352 123.521 281.612 122.341 282.191 121.31L299.431 97.8C299.649 97.4475 299.986 97.1849 300.381 97.06C300.805 97.0585 301.218 97.1915 301.561 97.44L310.271 102.44C310.762 102.769 311.144 103.235 311.371 103.78C311.67 104.405 311.827 105.088 311.831 105.78V139.86L316.781 142.73C317.277 143.053 317.661 143.521 317.881 144.07C318.187 144.692 318.344 145.377 318.341 146.07V155.48C318.365 155.736 318.337 155.993 318.258 156.238C318.179 156.482 318.051 156.707 317.881 156.9C317.738 157.044 317.548 157.131 317.346 157.146C317.144 157.16 316.943 157.102 316.781 156.98L311.831 154.12V163.17C311.853 163.425 311.824 163.683 311.745 163.927C311.666 164.17 311.539 164.396 311.371 164.59C311.228 164.734 311.038 164.821 310.836 164.836C310.634 164.851 310.433 164.792 310.271 164.67L302.701 160.29ZM301.431 133.9V117.57L293.001 129L301.431 133.9Z" fill="#263238"/>
<path d="M317.861 156.88C318.03 156.687 318.158 156.462 318.238 156.218C318.317 155.973 318.345 155.716 318.321 155.46V153.39L314.931 151.39L311.811 154.06L316.761 156.92C316.918 157.047 317.116 157.113 317.318 157.105C317.52 157.098 317.713 157.018 317.861 156.88Z" fill="#37474F"/>
<path d="M311.811 161.08V163.15C311.835 163.406 311.805 163.665 311.724 163.909C311.643 164.153 311.513 164.378 311.341 164.57C311.198 164.714 311.008 164.801 310.806 164.816C310.604 164.831 310.403 164.772 310.241 164.65L302.701 160.29C302.208 159.964 301.825 159.497 301.601 158.95L301.541 158.79L304.661 156.13C304.676 156.185 304.696 156.238 304.721 156.29C304.948 156.835 305.33 157.301 305.821 157.63L311.811 161.08Z" fill="#37474F"/>
<path d="M304.261 145.28L301.141 147.94L283.001 137.45C282.513 137.123 282.137 136.656 281.921 136.11C281.871 136.01 281.851 135.92 281.811 135.82L285.041 133.44C285.257 133.994 285.642 134.466 286.141 134.79L304.261 145.28Z" fill="#37474F"/>
<path d="M316.76 142.57L311.81 139.71V105.62C311.808 104.927 311.651 104.244 311.35 103.62C311.126 103.073 310.743 102.606 310.25 102.28L301.54 97.28C301.41 97.2041 301.272 97.1405 301.13 97.09L285.29 118.7C284.713 119.728 284.452 120.904 284.54 122.08V131.49C284.541 132.184 284.702 132.868 285.01 133.49C285.227 134.038 285.607 134.506 286.1 134.83L304.26 145.32V154.37C304.265 155.046 304.422 155.713 304.72 156.32C304.945 156.869 305.328 157.339 305.82 157.67L311.82 161.12V154.12L314.94 151.45L318.33 153.45V145.93C318.331 145.237 318.173 144.553 317.87 143.93C317.651 143.372 317.263 142.897 316.76 142.57ZM304.55 131.24L301.43 133.72L293 128.86L301.42 117.38L304.54 114.91L304.55 131.24Z" fill="#D3D3D3"/>
<path d="M382.9 206.59C382.404 206.267 382.02 205.799 381.8 205.25C381.502 204.643 381.345 203.976 381.34 203.3V194.24L363.18 183.76C362.684 183.433 362.3 182.962 362.08 182.41C361.782 181.803 361.625 181.136 361.62 180.46V171.05C361.533 169.874 361.793 168.698 362.37 167.67L379.61 144.16C379.819 143.8 380.16 143.534 380.56 143.42C380.983 143.416 381.396 143.545 381.74 143.79L390.45 148.79C390.94 149.117 391.32 149.584 391.54 150.13C391.846 150.752 392.003 151.437 392 152.13V186.2L397 189.06C397.496 189.383 397.88 189.851 398.1 190.4C398.403 191.023 398.561 191.707 398.56 192.4V201.81C398.583 202.065 398.554 202.323 398.475 202.567C398.396 202.811 398.269 203.037 398.1 203.23C397.956 203.372 397.765 203.458 397.563 203.471C397.361 203.484 397.161 203.423 397 203.3L392 200.44V209.44C392.025 209.696 391.997 209.954 391.918 210.198C391.839 210.442 391.71 210.668 391.54 210.86C391.4 211.005 391.211 211.093 391.01 211.108C390.809 211.123 390.61 211.063 390.45 210.94L382.9 206.59ZM381.63 180.21V163.87L373.21 175.35L381.63 180.21Z" fill="#263238"/>
<path d="M398.06 203.19C398.229 202.997 398.356 202.771 398.435 202.527C398.514 202.283 398.543 202.025 398.52 201.77V199.7L395.13 197.7L392 200.4L397 203.26C397.158 203.372 397.349 203.427 397.542 203.414C397.736 203.401 397.918 203.322 398.06 203.19Z" fill="#37474F"/>
<path d="M392 207.39V209.46C392.023 209.715 391.993 209.971 391.912 210.214C391.832 210.457 391.702 210.68 391.53 210.87C391.389 211.016 391.198 211.104 390.996 211.119C390.793 211.134 390.592 211.074 390.43 210.95L382.89 206.6C382.398 206.269 382.016 205.799 381.79 205.25L381.73 205.09L384.85 202.43C384.862 202.486 384.882 202.54 384.91 202.59C385.137 203.135 385.52 203.601 386.01 203.93L392 207.39Z" fill="#37474F"/>
<path d="M384.46 191.58L381.34 194.25L363.17 183.75C362.678 183.428 362.3 182.959 362.09 182.41C362.045 182.32 362.008 182.227 361.98 182.13L365.21 179.75C365.43 180.297 365.81 180.764 366.3 181.09L384.46 191.58Z" fill="#37474F"/>
<path d="M397 188.87L392 186V151.92C391.995 151.244 391.838 150.577 391.54 149.97C391.32 149.424 390.94 148.957 390.45 148.63L381.74 143.63C381.607 143.558 381.47 143.495 381.33 143.44L365.49 165C364.911 166.031 364.65 167.211 364.74 168.39V177.8C364.748 178.477 364.909 179.144 365.21 179.75C365.426 180.298 365.807 180.766 366.3 181.09L384.46 191.58V200.58C384.457 201.273 384.615 201.958 384.92 202.58C385.143 203.127 385.526 203.595 386.02 203.92L392.02 207.37V200.37L395.15 197.71L398.54 199.71V192.18C398.535 191.504 398.378 190.837 398.08 190.23C397.862 189.68 397.486 189.207 397 188.87ZM384.79 177.54L381.63 180L373.21 175.14L381.63 163.66L384.75 161.19L384.79 177.54Z" fill="#D3D3D3"/>
<path d="M286.881 177.89C286.975 177.954 287.048 178.044 287.091 178.15C287.149 178.265 287.179 178.391 287.181 178.52V180.33C287.185 180.38 287.179 180.431 287.164 180.479C287.148 180.527 287.123 180.572 287.091 180.61C287.062 180.635 287.024 180.649 286.986 180.649C286.947 180.649 286.91 180.635 286.881 180.61L281.621 177.61C281.529 177.544 281.456 177.454 281.411 177.35C281.356 177.231 281.328 177.101 281.331 176.97V165.97C281.325 165.92 281.329 165.87 281.343 165.822C281.356 165.774 281.38 165.729 281.411 165.69C281.44 165.665 281.477 165.651 281.516 165.651C281.554 165.651 281.592 165.665 281.621 165.69L286.801 168.69C286.893 168.756 286.965 168.846 287.011 168.95C287.062 169.07 287.089 169.199 287.091 169.33V171.14C287.097 171.237 287.068 171.332 287.011 171.41C286.981 171.434 286.944 171.446 286.906 171.446C286.868 171.446 286.831 171.434 286.801 171.41L283.381 169.41V171.26L286.551 173.09C286.645 173.154 286.718 173.244 286.761 173.35C286.819 173.465 286.849 173.591 286.851 173.72V175.54C286.854 175.589 286.848 175.638 286.833 175.684C286.817 175.73 286.793 175.773 286.761 175.81C286.733 175.837 286.695 175.853 286.656 175.853C286.616 175.853 286.579 175.837 286.551 175.81L283.381 174V175.92L286.881 177.89Z" fill="#FAFAFA"/>
<path d="M292.35 174.9C292.45 174.96 292.528 175.051 292.57 175.16C292.62 175.277 292.648 175.403 292.65 175.53V177.26C292.656 177.357 292.628 177.452 292.57 177.53C292.54 177.556 292.501 177.57 292.46 177.57C292.42 177.57 292.381 177.556 292.35 177.53L291.35 176.95C290.67 176.56 290.35 176.89 290.35 177.95V182.16C290.354 182.209 290.348 182.258 290.332 182.304C290.317 182.35 290.292 182.393 290.26 182.43C290.21 182.49 290.14 182.49 290.05 182.43L288.66 181.63C288.563 181.569 288.489 181.478 288.45 181.37C288.392 181.252 288.362 181.122 288.36 180.99V172.99C288.357 172.941 288.363 172.892 288.378 172.846C288.394 172.8 288.418 172.757 288.45 172.72C288.5 172.66 288.57 172.66 288.66 172.72L289.94 173.46C290.035 173.524 290.108 173.614 290.15 173.72C290.208 173.835 290.239 173.961 290.24 174.09V174.49C290.411 174.334 290.63 174.242 290.86 174.23C291.166 174.226 291.465 174.313 291.72 174.48L292.35 174.9Z" fill="#FAFAFA"/>
<path d="M297.45 177.84C297.547 177.901 297.621 177.993 297.66 178.1C297.718 178.215 297.749 178.341 297.75 178.47V180.2C297.754 180.249 297.748 180.298 297.732 180.344C297.717 180.39 297.692 180.433 297.66 180.47C297.632 180.497 297.594 180.513 297.555 180.513C297.516 180.513 297.478 180.497 297.45 180.47L296.45 179.89C295.77 179.5 295.45 179.83 295.45 180.89V185.1C295.454 185.149 295.448 185.198 295.432 185.244C295.417 185.29 295.392 185.333 295.36 185.37C295.332 185.397 295.294 185.413 295.255 185.413C295.216 185.413 295.178 185.397 295.15 185.37L293.75 184.57C293.658 184.504 293.586 184.414 293.54 184.31C293.482 184.192 293.451 184.062 293.45 183.93V175.93C293.447 175.881 293.453 175.832 293.468 175.786C293.484 175.74 293.508 175.697 293.54 175.66C293.568 175.633 293.606 175.617 293.645 175.617C293.684 175.617 293.722 175.633 293.75 175.66L295.04 176.4C295.135 176.464 295.208 176.554 295.25 176.66C295.308 176.775 295.339 176.901 295.34 177.03V177.43C295.505 177.272 295.722 177.18 295.95 177.17C296.255 177.166 296.555 177.253 296.81 177.42L297.45 177.84Z" fill="#FAFAFA"/>
<path d="M304.251 185.56C304.251 185.73 304.251 185.95 304.251 186.22C304.251 186.49 304.251 186.7 304.251 186.87C304.244 187.347 304.16 187.82 304.001 188.27C303.885 188.621 303.674 188.932 303.391 189.17C303.129 189.383 302.798 189.49 302.461 189.47C302.024 189.45 301.6 189.315 301.231 189.08C300.77 188.815 300.354 188.478 300.001 188.08C299.633 187.658 299.321 187.191 299.071 186.69C298.808 186.182 298.603 185.645 298.461 185.09C298.316 184.541 298.232 183.978 298.211 183.41C298.211 183.23 298.211 183.01 298.211 182.74C298.211 182.47 298.211 182.26 298.211 182.09C298.212 181.614 298.289 181.141 298.441 180.69C298.565 180.341 298.778 180.03 299.061 179.79C299.329 179.58 299.661 179.471 300.001 179.48C300.438 179.5 300.862 179.635 301.231 179.87C301.692 180.135 302.108 180.472 302.461 180.87C302.826 181.3 303.142 181.769 303.401 182.27C303.66 182.784 303.865 183.323 304.011 183.88C304.15 184.43 304.23 184.993 304.251 185.56ZM300.251 184.45C300.263 184.867 300.365 185.277 300.551 185.65C300.708 185.976 300.959 186.247 301.271 186.43C301.376 186.505 301.502 186.545 301.631 186.545C301.76 186.545 301.886 186.505 301.991 186.43C302.097 186.319 302.178 186.186 302.23 186.042C302.282 185.897 302.302 185.743 302.291 185.59C302.302 185.403 302.302 185.216 302.291 185.03C302.302 184.83 302.302 184.63 302.291 184.43C302.278 184.016 302.176 183.61 301.991 183.24C301.83 182.917 301.581 182.646 301.271 182.46C300.971 182.29 300.731 182.27 300.551 182.41C300.445 182.521 300.364 182.654 300.312 182.798C300.26 182.943 300.24 183.097 300.251 183.25C300.24 183.44 300.24 183.63 300.251 183.82C300.225 184.029 300.212 184.239 300.211 184.45H300.251Z" fill="#FAFAFA"/>
<path d="M309.322 184.69C309.414 184.756 309.486 184.846 309.532 184.95C309.59 185.068 309.621 185.198 309.622 185.33V187.05C309.627 187.099 309.622 187.148 309.606 187.195C309.591 187.241 309.565 187.284 309.532 187.32C309.504 187.347 309.466 187.363 309.427 187.363C309.387 187.363 309.35 187.347 309.322 187.32L308.322 186.74C307.642 186.34 307.322 186.67 307.322 187.74V191.94C307.327 191.989 307.322 192.038 307.306 192.085C307.291 192.131 307.265 192.174 307.232 192.21C307.204 192.237 307.166 192.253 307.127 192.253C307.087 192.253 307.05 192.237 307.022 192.21L305.622 191.4C305.527 191.336 305.454 191.246 305.412 191.14C305.354 191.025 305.323 190.899 305.322 190.77V182.77C305.317 182.72 305.323 182.669 305.339 182.621C305.354 182.573 305.379 182.528 305.412 182.49C305.441 182.465 305.478 182.451 305.517 182.451C305.555 182.451 305.593 182.465 305.622 182.49L306.912 183.23C307.004 183.296 307.076 183.386 307.122 183.49C307.18 183.608 307.211 183.738 307.212 183.87V184.26C307.38 184.106 307.595 184.015 307.822 184C308.128 184 308.427 184.09 308.682 184.26L309.322 184.69Z" fill="#FAFAFA"/>
<path d="M309.762 191.34C309.773 191.203 309.821 191.072 309.902 190.96C309.982 190.87 310.092 190.86 310.242 190.96L311.602 191.74C311.681 191.791 311.744 191.864 311.782 191.95C311.823 192.048 311.846 192.153 311.852 192.26C311.852 192.31 311.852 192.34 311.852 192.37L310.982 195.27C310.95 195.372 310.899 195.467 310.832 195.55C310.762 195.63 310.652 195.63 310.502 195.55L309.672 195.07C309.591 195.023 309.531 194.948 309.502 194.86C309.455 194.767 309.431 194.664 309.432 194.56L309.762 191.34Z" fill="#FAFAFA"/>
<path d="M318.761 199.2C318.555 199.079 318.364 198.934 318.191 198.77C318.037 198.616 317.896 198.448 317.771 198.27C317.656 198.109 317.555 197.938 317.471 197.76C317.391 197.59 317.321 197.45 317.271 197.31V201C317.276 201.049 317.271 201.098 317.255 201.145C317.24 201.191 317.214 201.234 317.181 201.27C317.152 201.297 317.115 201.313 317.076 201.313C317.036 201.313 316.999 201.297 316.971 201.27L315.571 200.46C315.474 200.399 315.4 200.307 315.361 200.2C315.303 200.085 315.272 199.959 315.271 199.83V188.59C315.267 188.541 315.273 188.492 315.289 188.446C315.304 188.4 315.328 188.357 315.361 188.32C315.39 188.296 315.427 188.284 315.466 188.284C315.504 188.284 315.541 188.296 315.571 188.32L316.921 189.1C317.015 189.164 317.088 189.254 317.131 189.36C317.188 189.475 317.219 189.601 317.221 189.73V190.13C317.281 190.05 317.361 189.97 317.431 189.89C317.511 189.812 317.611 189.757 317.721 189.73C317.858 189.695 318.003 189.695 318.141 189.73C318.36 189.781 318.57 189.869 318.761 189.99C319.114 190.197 319.432 190.46 319.701 190.77C320.017 191.116 320.28 191.507 320.481 191.93C320.713 192.423 320.894 192.939 321.021 193.47C321.16 194.084 321.234 194.711 321.241 195.34C321.241 195.51 321.241 195.75 321.241 196.04C321.241 196.33 321.241 196.56 321.241 196.72C321.245 197.264 321.171 197.807 321.021 198.33C320.922 198.675 320.736 198.989 320.481 199.24C320.376 199.337 320.253 199.411 320.119 199.459C319.985 199.507 319.843 199.528 319.701 199.52C319.366 199.492 319.043 199.382 318.761 199.2ZM319.261 195.35C319.282 195.017 319.282 194.683 319.261 194.35C319.239 193.942 319.151 193.54 319.001 193.16C318.868 192.79 318.605 192.481 318.261 192.29C318.136 192.209 317.989 192.167 317.841 192.17C317.727 192.179 317.62 192.228 317.541 192.31C317.465 192.411 317.404 192.522 317.361 192.64C317.319 192.787 317.289 192.938 317.271 193.09C317.271 193.25 317.271 193.45 317.271 193.67C317.271 193.89 317.271 194.1 317.271 194.28C317.291 194.465 317.321 194.648 317.361 194.83C317.408 195.014 317.469 195.194 317.541 195.37C317.619 195.546 317.72 195.71 317.841 195.86C317.956 196.006 318.099 196.128 318.261 196.22C318.611 196.42 318.861 196.42 319.001 196.22C319.164 195.959 319.253 195.658 319.261 195.35Z" fill="#FAFAFA"/>
<path d="M321.931 198.33C321.897 198.047 321.93 197.761 322.027 197.493C322.124 197.225 322.283 196.985 322.491 196.79C322.777 196.653 323.09 196.582 323.406 196.582C323.723 196.582 324.036 196.653 324.321 196.79L325.621 197.2C325.625 196.939 325.574 196.68 325.471 196.44C325.374 196.201 325.197 196.004 324.971 195.88C324.857 195.802 324.72 195.763 324.581 195.77C324.507 195.785 324.437 195.812 324.371 195.85C324.346 195.873 324.316 195.89 324.283 195.901C324.25 195.911 324.215 195.914 324.181 195.91C324.107 195.892 324.036 195.861 323.971 195.82L322.561 195.01C322.484 194.957 322.422 194.884 322.381 194.8C322.332 194.705 322.311 194.597 322.321 194.49C322.338 194.246 322.413 194.009 322.541 193.8C322.677 193.595 322.868 193.432 323.091 193.33C323.353 193.22 323.639 193.179 323.921 193.21C324.294 193.255 324.653 193.381 324.971 193.58C325.412 193.828 325.81 194.146 326.151 194.52C326.48 194.872 326.756 195.269 326.971 195.7C327.189 196.128 327.353 196.582 327.461 197.05C327.562 197.534 327.612 198.026 327.611 198.52V203.7C327.615 203.749 327.609 203.798 327.593 203.844C327.578 203.89 327.553 203.933 327.521 203.97C327.493 203.997 327.455 204.013 327.416 204.013C327.377 204.013 327.339 203.997 327.311 203.97L325.911 203.17C325.819 203.104 325.747 203.014 325.701 202.91C325.646 202.791 325.619 202.661 325.621 202.53V202C325.546 202.113 325.449 202.209 325.335 202.283C325.222 202.357 325.095 202.407 324.961 202.43C324.604 202.444 324.252 202.338 323.961 202.13C323.641 201.949 323.354 201.716 323.111 201.44C322.863 201.164 322.654 200.854 322.491 200.52C322.32 200.176 322.189 199.814 322.101 199.44C322.007 199.077 321.95 198.705 321.931 198.33ZM324.461 200.18C324.598 200.269 324.758 200.317 324.921 200.32C325.054 200.317 325.181 200.267 325.281 200.18C325.397 200.078 325.483 199.947 325.531 199.8C325.595 199.61 325.625 199.41 325.621 199.21L324.621 198.86C324.544 198.827 324.46 198.81 324.376 198.81C324.292 198.81 324.209 198.827 324.131 198.86C324.066 198.908 324.016 198.972 323.984 199.045C323.952 199.119 323.941 199.2 323.951 199.28C323.946 199.47 323.994 199.657 324.091 199.82C324.185 199.967 324.311 200.091 324.461 200.18Z" fill="#FAFAFA"/>
<path d="M331.581 207.62C331.688 207.697 331.811 207.749 331.941 207.773C332.07 207.798 332.203 207.793 332.331 207.76C332.541 207.68 332.651 207.44 332.651 207.04V205.85C332.586 205.937 332.512 206.017 332.431 206.09C332.353 206.172 332.252 206.228 332.141 206.25C332.003 206.285 331.859 206.285 331.721 206.25C331.505 206.197 331.299 206.109 331.111 205.99C330.757 205.784 330.436 205.524 330.161 205.22C329.854 204.87 329.595 204.479 329.391 204.06C329.159 203.577 328.978 203.071 328.851 202.55C328.709 201.953 328.632 201.343 328.621 200.73C328.621 200.56 328.621 200.35 328.621 200.12C328.621 199.89 328.621 199.69 328.621 199.52C328.621 198.988 328.699 198.459 328.851 197.95C328.951 197.614 329.137 197.311 329.391 197.07C329.603 196.884 329.879 196.787 330.161 196.8C330.497 196.831 330.822 196.937 331.111 197.11C331.338 197.242 331.55 197.4 331.741 197.58C331.911 197.738 332.065 197.912 332.201 198.1C332.315 198.263 332.419 198.434 332.511 198.61C332.591 198.78 332.651 198.93 332.701 199.06V198.67C332.697 198.62 332.702 198.569 332.718 198.521C332.733 198.473 332.758 198.428 332.791 198.39C332.823 198.366 332.861 198.352 332.901 198.352C332.941 198.352 332.98 198.366 333.011 198.39L334.291 199.13C334.386 199.194 334.459 199.284 334.501 199.39C334.559 199.505 334.59 199.631 334.591 199.76V208.08C334.613 208.607 334.535 209.132 334.361 209.63C334.248 209.974 334.032 210.274 333.741 210.49C333.441 210.671 333.084 210.731 332.741 210.66C332.31 210.583 331.896 210.427 331.521 210.2C330.99 209.898 330.514 209.509 330.111 209.05C329.769 208.656 329.48 208.219 329.251 207.75C329.058 207.356 328.913 206.939 328.821 206.51C328.742 206.182 328.695 205.847 328.681 205.51C328.672 205.46 328.675 205.408 328.691 205.359C328.706 205.31 328.734 205.266 328.771 205.23C328.8 205.205 328.838 205.191 328.876 205.191C328.915 205.191 328.952 205.205 328.981 205.23L330.421 206.06C330.603 206.188 330.729 206.381 330.771 206.6C330.824 206.788 330.905 206.966 331.011 207.13C331.15 207.345 331.348 207.515 331.581 207.62ZM330.581 200.83C330.572 200.963 330.572 201.097 330.581 201.23C330.573 201.377 330.573 201.523 330.581 201.67C330.597 202.064 330.689 202.451 330.851 202.81C330.996 203.155 331.253 203.441 331.581 203.62C331.881 203.8 332.111 203.8 332.271 203.62C332.448 203.424 332.55 203.173 332.561 202.91C332.601 202.551 332.601 202.189 332.561 201.83C332.527 201.483 332.432 201.145 332.281 200.83C332.134 200.504 331.889 200.231 331.581 200.05C331.261 199.86 331.021 199.85 330.861 200.05C330.69 200.273 330.602 200.549 330.611 200.83H330.581Z" fill="#FAFAFA"/>
<path d="M337.61 206.44C337.606 206.676 337.637 206.912 337.7 207.14C337.758 207.332 337.838 207.517 337.94 207.69C338.028 207.837 338.135 207.972 338.26 208.09C338.369 208.187 338.486 208.274 338.61 208.35C338.767 208.453 338.944 208.521 339.13 208.55C339.249 208.56 339.367 208.524 339.46 208.45C339.51 208.403 339.573 208.372 339.64 208.36C339.708 208.358 339.775 208.379 339.83 208.42L341.27 209.25C341.353 209.307 341.419 209.385 341.462 209.477C341.504 209.569 341.521 209.67 341.51 209.77C341.498 209.957 341.443 210.138 341.35 210.3C341.226 210.524 341.047 210.714 340.83 210.85C340.562 211.021 340.248 211.105 339.93 211.09C339.46 211.066 339.004 210.918 338.61 210.66C338.129 210.377 337.697 210.02 337.33 209.6C336.945 209.161 336.625 208.669 336.38 208.14C336.123 207.57 335.932 206.973 335.81 206.36C335.676 205.685 335.609 204.998 335.61 204.31C335.602 203.73 335.669 203.152 335.81 202.59C335.902 202.171 336.098 201.783 336.38 201.46C336.63 201.202 336.971 201.052 337.33 201.04C337.785 201.044 338.23 201.179 338.61 201.43C339.148 201.739 339.617 202.154 339.99 202.65C340.369 203.148 340.681 203.692 340.92 204.27C341.158 204.849 341.333 205.453 341.44 206.07C341.545 206.644 341.599 207.226 341.6 207.81V208.29C341.604 208.339 341.597 208.388 341.582 208.434C341.567 208.48 341.542 208.523 341.51 208.56C341.482 208.587 341.444 208.603 341.405 208.603C341.366 208.603 341.328 208.587 341.3 208.56L337.61 206.44ZM338.61 203.74C338.3 203.56 338.06 203.56 337.9 203.74C337.723 203.966 337.621 204.243 337.61 204.53L339.61 205.69C339.574 205.3 339.476 204.919 339.32 204.56C339.175 204.219 338.927 203.932 338.61 203.74Z" fill="#FAFAFA"/>
<path d="M350.88 217.11C350.884 217.159 350.877 217.208 350.862 217.254C350.847 217.3 350.822 217.343 350.79 217.38C350.76 217.404 350.723 217.416 350.685 217.416C350.647 217.416 350.61 217.404 350.58 217.38L349.18 216.57C349.086 216.506 349.012 216.416 348.97 216.31C348.912 216.195 348.881 216.069 348.88 215.94V211.61C348.885 211.163 348.807 210.719 348.65 210.3C348.513 209.935 348.255 209.628 347.92 209.43C347.58 209.24 347.34 209.25 347.19 209.43C347.019 209.734 346.939 210.081 346.96 210.43V214.76C346.964 214.809 346.957 214.858 346.942 214.904C346.927 214.95 346.902 214.993 346.87 215.03C346.842 215.057 346.804 215.073 346.765 215.073C346.726 215.073 346.688 215.057 346.66 215.03L345.26 214.23C345.168 214.164 345.095 214.074 345.05 213.97C344.992 213.852 344.961 213.722 344.96 213.59V205.59C344.956 205.541 344.963 205.492 344.978 205.446C344.993 205.4 345.018 205.357 345.05 205.32C345.078 205.293 345.116 205.277 345.155 205.277C345.194 205.277 345.232 205.293 345.26 205.32L346.61 206.09C346.704 206.154 346.778 206.244 346.82 206.35C346.878 206.465 346.909 206.591 346.91 206.72V207.12C346.973 207.034 347.047 206.956 347.13 206.89C347.219 206.809 347.331 206.757 347.45 206.74C347.595 206.71 347.745 206.71 347.89 206.74C348.094 206.796 348.289 206.88 348.47 206.99C348.843 207.199 349.18 207.466 349.47 207.78C349.777 208.125 350.033 208.512 350.23 208.93C350.451 209.409 350.616 209.913 350.72 210.43C350.845 211.035 350.905 211.652 350.9 212.27L350.88 217.11Z" fill="#FAFAFA"/>
<path d="M357.9 216.53C357.9 216.71 357.9 216.93 357.9 217.2C357.9 217.47 357.9 217.68 357.9 217.85C357.896 218.323 357.815 218.793 357.66 219.24C357.542 219.593 357.332 219.907 357.05 220.15C356.783 220.361 356.449 220.467 356.11 220.45C355.672 220.425 355.248 220.288 354.88 220.05C354.422 219.785 354.01 219.447 353.66 219.05C353.289 218.628 352.973 218.161 352.72 217.66C352.459 217.147 352.255 216.607 352.11 216.05C351.962 215.502 351.881 214.938 351.87 214.37C351.87 214.2 351.87 213.98 351.87 213.71C351.87 213.44 351.87 213.23 351.87 213.06C351.861 212.583 351.939 212.109 352.1 211.66C352.216 211.309 352.427 210.998 352.71 210.76C352.992 210.534 353.349 210.423 353.71 210.45C354.144 210.472 354.564 210.606 354.93 210.84C355.391 211.105 355.807 211.442 356.16 211.84C356.527 212.268 356.843 212.738 357.1 213.24C357.363 213.752 357.568 214.292 357.71 214.85C357.841 215.4 357.905 215.964 357.9 216.53ZM353.9 215.43C353.92 215.844 354.025 216.249 354.21 216.62C354.367 216.943 354.613 217.213 354.92 217.4C355.22 217.58 355.46 217.59 355.64 217.4C355.746 217.289 355.827 217.156 355.879 217.012C355.931 216.867 355.951 216.713 355.94 216.56C355.952 216.37 355.952 216.18 355.94 215.99C355.951 215.793 355.951 215.596 355.94 215.4C355.928 214.986 355.826 214.58 355.64 214.21C355.483 213.884 355.232 213.613 354.92 213.43C354.818 213.353 354.693 213.311 354.565 213.311C354.437 213.311 354.312 213.353 354.21 213.43C354.104 213.542 354.022 213.674 353.969 213.818C353.916 213.963 353.892 214.116 353.9 214.27C353.9 214.43 353.9 214.62 353.9 214.84C353.9 215.06 353.85 215.25 353.86 215.43H353.9Z" fill="#FAFAFA"/>
<path d="M361.552 220.26C361.547 220.488 361.584 220.715 361.662 220.93C361.734 221.111 361.864 221.262 362.032 221.36L362.922 221.87C363.016 221.934 363.089 222.024 363.132 222.13C363.191 222.248 363.222 222.378 363.222 222.51V224.23C363.227 224.279 363.222 224.328 363.206 224.375C363.191 224.421 363.165 224.464 363.132 224.5C363.104 224.527 363.066 224.543 363.027 224.543C362.987 224.543 362.95 224.527 362.922 224.5L361.862 223.89C361.506 223.682 361.185 223.419 360.912 223.11C360.627 222.782 360.385 222.419 360.192 222.03C359.985 221.606 359.827 221.16 359.722 220.7C359.608 220.205 359.551 219.698 359.552 219.19V216.32L358.732 215.85C358.637 215.786 358.564 215.696 358.522 215.59C358.464 215.475 358.433 215.349 358.432 215.22V213.49C358.426 213.441 358.432 213.392 358.447 213.345C358.463 213.299 358.488 213.256 358.522 213.22C358.55 213.193 358.587 213.177 358.627 213.177C358.666 213.177 358.704 213.193 358.732 213.22L359.552 213.7V210.91C359.547 210.861 359.553 210.812 359.568 210.765C359.584 210.719 359.609 210.676 359.642 210.64C359.672 210.616 359.709 210.604 359.747 210.604C359.785 210.604 359.822 210.616 359.852 210.64L361.252 211.45C361.346 211.514 361.419 211.604 361.462 211.71C361.52 211.825 361.55 211.951 361.552 212.08V214.87L362.802 215.59C362.899 215.653 362.976 215.743 363.022 215.85C363.077 215.969 363.104 216.099 363.102 216.23V217.95C363.107 218 363.103 218.05 363.09 218.098C363.076 218.146 363.053 218.191 363.022 218.23C362.99 218.254 362.952 218.268 362.912 218.268C362.872 218.268 362.833 218.254 362.802 218.23L361.552 217.51V220.26Z" fill="#FAFAFA"/>
<path d="M369.001 219.16L370.361 219.95C370.452 220.012 370.525 220.099 370.571 220.2C370.628 220.319 370.658 220.448 370.661 220.58V222.31C370.664 222.359 370.658 222.408 370.643 222.454C370.627 222.5 370.603 222.543 370.571 222.58C370.541 222.604 370.504 222.616 370.466 222.616C370.428 222.616 370.391 222.604 370.361 222.58L369.001 221.79V227.56C369.006 227.609 369.001 227.658 368.985 227.705C368.97 227.751 368.944 227.794 368.911 227.83C368.883 227.857 368.845 227.873 368.806 227.873C368.766 227.873 368.729 227.857 368.701 227.83L367.301 227.02C367.204 226.959 367.13 226.867 367.091 226.76C367.033 226.645 367.002 226.519 367.001 226.39V220.61L366.241 220.17C366.145 220.139 366.061 220.08 366.001 220C365.951 219.883 365.924 219.757 365.921 219.63V217.9C365.915 217.803 365.943 217.708 366.001 217.63C366.032 217.606 366.071 217.592 366.111 217.592C366.151 217.592 366.189 217.606 366.221 217.63L366.981 218.08V217.62C366.969 217.18 367.03 216.74 367.161 216.32C367.251 216.027 367.429 215.769 367.671 215.58C367.89 215.421 368.161 215.35 368.431 215.38C368.785 215.41 369.128 215.523 369.431 215.71L370.481 216.32C370.578 216.381 370.652 216.472 370.691 216.58C370.749 216.698 370.78 216.828 370.781 216.96V218.68C370.785 218.73 370.779 218.781 370.764 218.829C370.748 218.877 370.724 218.922 370.691 218.96C370.662 218.985 370.624 218.999 370.586 218.999C370.547 218.999 370.51 218.985 370.481 218.96L369.481 218.38C369.301 218.28 369.171 218.28 369.101 218.38C369.022 218.524 368.988 218.687 369.001 218.85V219.16Z" fill="#FAFAFA"/>
<path d="M377.222 227.69C377.222 227.86 377.222 228.08 377.222 228.35C377.222 228.62 377.222 228.83 377.222 229C377.214 229.477 377.13 229.95 376.972 230.4C376.852 230.749 376.641 231.059 376.362 231.3C376.099 231.511 375.768 231.618 375.432 231.6C374.994 231.575 374.57 231.438 374.202 231.2C373.74 230.936 373.324 230.598 372.972 230.2C372.604 229.778 372.292 229.311 372.042 228.81C371.524 227.791 371.231 226.672 371.182 225.53C371.182 225.35 371.182 225.13 371.182 224.86C371.182 224.59 371.182 224.38 371.182 224.21C371.182 223.734 371.26 223.261 371.412 222.81C371.531 222.458 371.745 222.147 372.032 221.91C372.299 221.7 372.632 221.591 372.972 221.6C373.409 221.62 373.833 221.755 374.202 221.99C374.663 222.255 375.078 222.592 375.432 222.99C375.797 223.42 376.112 223.889 376.372 224.39C376.638 224.903 376.849 225.443 377.002 226C377.134 226.554 377.208 227.12 377.222 227.69ZM373.222 226.58C373.233 226.997 373.336 227.407 373.522 227.78C373.679 228.106 373.929 228.377 374.242 228.56C374.347 228.635 374.473 228.675 374.602 228.675C374.731 228.675 374.857 228.635 374.962 228.56C375.068 228.449 375.149 228.316 375.201 228.172C375.252 228.027 375.273 227.873 375.262 227.72C375.262 227.56 375.262 227.37 375.262 227.15C375.262 226.93 375.262 226.74 375.262 226.56C375.249 226.146 375.147 225.74 374.962 225.37C374.801 225.047 374.551 224.776 374.242 224.59C373.942 224.42 373.702 224.4 373.522 224.59C373.416 224.701 373.334 224.834 373.283 224.978C373.231 225.123 373.21 225.277 373.222 225.43C373.211 225.62 373.211 225.81 373.222 226C373.198 226.192 373.185 226.386 373.182 226.58H373.222Z" fill="#FAFAFA"/>
<path d="M378.212 224.93C378.206 224.88 378.21 224.83 378.224 224.782C378.238 224.734 378.261 224.689 378.292 224.65C378.321 224.625 378.358 224.611 378.397 224.611C378.435 224.611 378.473 224.625 378.502 224.65L379.902 225.45C379.994 225.516 380.066 225.606 380.112 225.71C380.17 225.828 380.201 225.958 380.202 226.09V230.41C380.194 230.852 380.265 231.293 380.412 231.71C380.537 232.067 380.785 232.368 381.112 232.56C381.442 232.75 381.672 232.73 381.812 232.51C381.968 232.18 382.037 231.815 382.012 231.45V227.13C382.008 227.081 382.014 227.032 382.03 226.986C382.045 226.94 382.07 226.897 382.102 226.86C382.132 226.836 382.169 226.824 382.207 226.824C382.245 226.824 382.282 226.836 382.312 226.86L383.712 227.67C383.806 227.734 383.879 227.824 383.922 227.93C383.981 228.048 384.012 228.178 384.012 228.31V236.31C384.015 236.359 384.009 236.408 383.994 236.454C383.978 236.5 383.954 236.543 383.922 236.58C383.894 236.607 383.856 236.623 383.817 236.623C383.777 236.623 383.74 236.607 383.712 236.58L382.422 235.84C382.327 235.776 382.254 235.686 382.212 235.58C382.154 235.465 382.123 235.339 382.122 235.21V234.81C382.06 234.903 381.986 234.987 381.902 235.06C381.811 235.13 381.705 235.178 381.592 235.2C381.447 235.229 381.297 235.229 381.152 235.2C380.943 235.153 380.744 235.072 380.562 234.96C379.808 234.503 379.209 233.831 378.842 233.03C378.387 231.981 378.172 230.843 378.212 229.7V224.93Z" fill="#FAFAFA"/>
<path d="M391.21 240.39C391.216 240.439 391.211 240.488 391.195 240.535C391.18 240.581 391.154 240.624 391.12 240.66C391.092 240.687 391.055 240.703 391.015 240.703C390.976 240.703 390.939 240.687 390.91 240.66L389.51 239.85C389.414 239.789 389.34 239.697 389.3 239.59C389.243 239.475 389.212 239.349 389.21 239.22V234.9C389.216 234.45 389.138 234.002 388.98 233.58C388.84 233.22 388.583 232.917 388.25 232.72C387.91 232.52 387.67 232.53 387.52 232.72C387.342 233.04 387.262 233.405 387.29 233.77V238.09C387.296 238.139 387.291 238.188 387.275 238.235C387.26 238.281 387.234 238.324 387.2 238.36C387.172 238.387 387.135 238.403 387.095 238.403C387.056 238.403 387.018 238.387 386.99 238.36L385.59 237.55C385.496 237.486 385.423 237.396 385.38 237.29C385.323 237.175 385.292 237.049 385.29 236.92V228.92C385.286 228.87 385.292 228.819 385.307 228.771C385.323 228.723 385.348 228.678 385.38 228.64C385.41 228.615 385.447 228.601 385.485 228.601C385.524 228.601 385.561 228.615 385.59 228.64L386.94 229.41C387.033 229.476 387.105 229.566 387.15 229.67C387.209 229.788 387.239 229.918 387.24 230.05V230.44C387.301 230.352 387.375 230.274 387.46 230.21C387.554 230.136 387.664 230.085 387.78 230.06C387.926 230.031 388.075 230.031 388.22 230.06C388.426 230.107 388.622 230.188 388.8 230.3C389.173 230.509 389.511 230.776 389.8 231.09C390.106 231.436 390.361 231.823 390.56 232.24C390.782 232.719 390.946 233.223 391.05 233.74C391.175 234.345 391.235 234.962 391.23 235.58L391.21 240.39Z" fill="#FAFAFA"/>
<path d="M394.701 233.82C394.913 233.932 395.105 234.077 395.271 234.25C395.425 234.404 395.565 234.572 395.691 234.75C395.803 234.909 395.903 235.076 395.991 235.25C396.071 235.42 396.141 235.57 396.191 235.7V232.06C396.187 232.011 396.193 231.962 396.209 231.916C396.224 231.87 396.249 231.827 396.281 231.79C396.311 231.766 396.348 231.754 396.386 231.754C396.424 231.754 396.461 231.766 396.491 231.79L397.891 232.6C397.985 232.664 398.058 232.754 398.101 232.86C398.16 232.978 398.191 233.108 398.191 233.24V244.44C398.196 244.489 398.191 244.538 398.175 244.585C398.16 244.631 398.134 244.674 398.101 244.71C398.073 244.737 398.035 244.753 397.996 244.753C397.957 244.753 397.919 244.737 397.891 244.71L396.541 243.93C396.447 243.87 396.373 243.783 396.331 243.68C396.274 243.561 396.243 243.432 396.241 243.3V242.91C396.177 242.995 396.106 243.075 396.031 243.15C395.947 243.224 395.848 243.279 395.741 243.31C395.603 243.345 395.459 243.345 395.321 243.31C395.102 243.257 394.892 243.169 394.701 243.05C394.351 242.841 394.034 242.582 393.761 242.28C393.447 241.929 393.184 241.535 392.981 241.11C392.747 240.621 392.566 240.108 392.441 239.58C392.302 238.966 392.229 238.339 392.221 237.71C392.221 237.53 392.221 237.3 392.221 237.01C392.221 236.72 392.221 236.49 392.221 236.32C392.217 235.776 392.291 235.233 392.441 234.71C392.541 234.366 392.727 234.053 392.981 233.8C393.085 233.703 393.208 233.629 393.342 233.581C393.476 233.533 393.619 233.512 393.761 233.52C394.094 233.54 394.417 233.643 394.701 233.82ZM394.201 237.66C394.179 237.993 394.179 238.327 394.201 238.66C394.226 239.068 394.314 239.469 394.461 239.85C394.598 240.218 394.86 240.526 395.201 240.72C395.324 240.806 395.471 240.852 395.621 240.85C395.736 240.838 395.842 240.784 395.921 240.7C396.004 240.604 396.065 240.492 396.101 240.37C396.143 240.226 396.173 240.079 396.191 239.93C396.191 239.76 396.191 239.57 396.191 239.34C396.191 239.11 396.191 238.91 396.191 238.73C396.191 238.55 396.141 238.37 396.101 238.18C396.059 237.994 395.999 237.814 395.921 237.64C395.842 237.467 395.742 237.306 395.621 237.16C395.505 237.011 395.363 236.886 395.201 236.79C394.851 236.59 394.611 236.6 394.461 236.79C394.3 237.052 394.21 237.352 394.201 237.66Z" fill="#FAFAFA"/>
</svg>
