<svg width="1429" height="784" viewBox="0 0 1429 784" fill="none" xmlns="http://www.w3.org/2000/svg">
<path d="M26 165H91V327.5C91 345.267 97.2833 360.65 109.85 373.65C122.85 386.217 138.233 392.5 156 392.5H416V165H481V620H416V457.5H156C132.167 457.5 110.283 451.65 90.35 439.95C70.85 428.25 55.25 412.65 43.55 393.15C31.85 373.217 26 351.333 26 327.5V165Z" fill="#151313"/>
<path d="M1391.35 295C1391.35 314.5 1387.23 332.7 1379 349.6C1371.2 366.5 1360.37 380.8 1346.5 392.5C1360.37 404.633 1371.2 419.15 1379 436.05C1387.23 452.95 1391.35 470.933 1391.35 490C1391.35 513.833 1385.5 535.717 1373.8 555.65C1362.1 575.15 1346.28 590.75 1326.35 602.45C1306.85 614.15 1285.18 620 1261.35 620H968.85V555H1261.35C1279.12 555 1294.28 548.717 1306.85 536.15C1319.85 523.15 1326.35 507.767 1326.35 490C1326.35 472.233 1319.85 457.067 1306.85 444.5C1294.28 431.5 1279.12 425 1261.35 425H1050.75V360H1261.35C1279.12 360 1294.28 353.717 1306.85 341.15C1319.85 328.15 1326.35 312.767 1326.35 295C1326.35 277.233 1319.85 262.067 1306.85 249.5C1294.28 236.5 1279.12 230 1261.35 230H968.85V165H1261.35C1285.18 165 1306.85 170.85 1326.35 182.55C1346.28 194.25 1362.1 210.067 1373.8 230C1385.5 249.5 1391.35 271.167 1391.35 295Z" fill="#151313"/>
<rect x="517" y="161" width="420" height="459" rx="90" fill="#151313"/>
<path d="M642.723 313H622.85V277.307H642.723V280.969H627V292.517H641.819V296.13H627V309.338H642.723V313ZM662.181 285.754C662.718 285.754 663.279 285.786 663.865 285.852C664.451 285.9 664.972 285.974 665.428 286.071L664.915 289.831C664.476 289.717 663.987 289.628 663.45 289.562C662.913 289.497 662.409 289.465 661.937 289.465C660.862 289.465 659.845 289.685 658.885 290.124C657.941 290.547 657.111 291.166 656.395 291.979C655.678 292.777 655.117 293.745 654.71 294.885C654.303 296.008 654.1 297.261 654.1 298.645V313H650.022V286.242H653.392L653.831 291.174H654.002C654.555 290.181 655.223 289.278 656.004 288.464C656.785 287.634 657.688 286.975 658.714 286.486C659.756 285.998 660.911 285.754 662.181 285.754ZM682.64 285.754C683.177 285.754 683.738 285.786 684.324 285.852C684.91 285.9 685.431 285.974 685.887 286.071L685.374 289.831C684.935 289.717 684.446 289.628 683.909 289.562C683.372 289.497 682.868 289.465 682.396 289.465C681.321 289.465 680.304 289.685 679.344 290.124C678.4 290.547 677.57 291.166 676.854 291.979C676.137 292.777 675.576 293.745 675.169 294.885C674.762 296.008 674.559 297.261 674.559 298.645V313H670.481V286.242H673.851L674.29 291.174H674.461C675.014 290.181 675.682 289.278 676.463 288.464C677.244 287.634 678.147 286.975 679.173 286.486C680.215 285.998 681.37 285.754 682.64 285.754ZM714.012 299.572C714.012 301.77 713.727 303.731 713.157 305.456C712.588 307.181 711.766 308.638 710.691 309.826C709.617 311.014 708.315 311.926 706.785 312.561C705.271 313.179 703.554 313.488 701.634 313.488C699.843 313.488 698.2 313.179 696.702 312.561C695.221 311.926 693.935 311.014 692.845 309.826C691.771 308.638 690.932 307.181 690.33 305.456C689.744 303.731 689.451 301.77 689.451 299.572C689.451 296.643 689.948 294.152 690.94 292.102C691.933 290.035 693.349 288.464 695.188 287.39C697.044 286.299 699.249 285.754 701.805 285.754C704.246 285.754 706.378 286.299 708.201 287.39C710.04 288.48 711.465 290.059 712.474 292.126C713.499 294.177 714.012 296.659 714.012 299.572ZM693.65 299.572C693.65 301.721 693.935 303.584 694.505 305.163C695.075 306.742 695.953 307.963 697.142 308.825C698.33 309.688 699.86 310.119 701.731 310.119C703.587 310.119 705.109 309.688 706.297 308.825C707.501 307.963 708.388 306.742 708.958 305.163C709.528 303.584 709.812 301.721 709.812 299.572C709.812 297.44 709.528 295.601 708.958 294.055C708.388 292.492 707.509 291.288 706.321 290.441C705.133 289.595 703.595 289.172 701.707 289.172C698.924 289.172 696.881 290.091 695.579 291.931C694.293 293.77 693.65 296.317 693.65 299.572ZM733.177 285.754C733.714 285.754 734.275 285.786 734.861 285.852C735.447 285.9 735.968 285.974 736.424 286.071L735.911 289.831C735.472 289.717 734.983 289.628 734.446 289.562C733.909 289.497 733.405 289.465 732.933 289.465C731.858 289.465 730.841 289.685 729.881 290.124C728.937 290.547 728.107 291.166 727.391 291.979C726.674 292.777 726.113 293.745 725.706 294.885C725.299 296.008 725.096 297.261 725.096 298.645V313H721.019V286.242H724.388L724.827 291.174H724.998C725.551 290.181 726.219 289.278 727 288.464C727.781 287.634 728.685 286.975 729.71 286.486C730.752 285.998 731.907 285.754 733.177 285.754ZM777.83 304.724H772.483V313H768.528V304.724H751.268V301.306L768.26 277.111H772.483V301.062H777.83V304.724ZM768.528 301.062V289.392C768.528 288.496 768.536 287.691 768.553 286.975C768.569 286.242 768.593 285.567 768.626 284.948C768.659 284.313 768.683 283.711 768.699 283.142C768.732 282.572 768.756 282.01 768.772 281.457H768.577C768.268 282.108 767.91 282.8 767.503 283.532C767.112 284.248 766.714 284.891 766.307 285.461L755.296 301.062H768.528ZM804.856 295.104C804.856 298.002 804.637 300.59 804.197 302.868C803.758 305.147 803.066 307.076 802.122 308.654C801.178 310.233 799.957 311.438 798.46 312.268C796.963 313.081 795.164 313.488 793.064 313.488C790.411 313.488 788.214 312.764 786.473 311.315C784.747 309.867 783.453 307.775 782.591 305.041C781.744 302.29 781.321 298.978 781.321 295.104C781.321 291.296 781.704 288.024 782.469 285.29C783.25 282.539 784.503 280.432 786.229 278.967C787.954 277.486 790.232 276.745 793.064 276.745C795.75 276.745 797.964 277.478 799.705 278.942C801.447 280.391 802.741 282.491 803.587 285.241C804.433 287.976 804.856 291.263 804.856 295.104ZM785.398 295.104C785.398 298.425 785.651 301.192 786.155 303.405C786.66 305.619 787.474 307.279 788.597 308.386C789.736 309.476 791.225 310.021 793.064 310.021C794.904 310.021 796.385 309.476 797.508 308.386C798.647 307.295 799.469 305.643 799.974 303.43C800.494 301.216 800.755 298.441 800.755 295.104C800.755 291.833 800.503 289.099 799.998 286.901C799.493 284.688 798.68 283.028 797.557 281.921C796.434 280.798 794.936 280.236 793.064 280.236C791.193 280.236 789.695 280.798 788.572 281.921C787.449 283.028 786.635 284.688 786.131 286.901C785.643 289.099 785.398 291.833 785.398 295.104ZM831.956 285.632C831.956 287.227 831.647 288.61 831.028 289.782C830.41 290.954 829.547 291.914 828.44 292.663C827.334 293.396 826.032 293.908 824.534 294.201V294.396C827.366 294.755 829.49 295.666 830.906 297.131C832.339 298.596 833.055 300.516 833.055 302.893C833.055 304.96 832.566 306.791 831.59 308.386C830.63 309.981 829.148 311.234 827.146 312.146C825.161 313.041 822.614 313.488 819.505 313.488C817.617 313.488 815.867 313.334 814.256 313.024C812.661 312.731 811.131 312.235 809.666 311.535V307.727C811.147 308.459 812.758 309.037 814.5 309.46C816.242 309.867 817.926 310.07 819.554 310.07C822.809 310.07 825.161 309.427 826.609 308.142C828.058 306.84 828.782 305.065 828.782 302.819C828.782 301.273 828.375 300.028 827.562 299.084C826.764 298.124 825.608 297.424 824.095 296.984C822.597 296.529 820.791 296.301 818.675 296.301H815.11V292.834H818.699C820.636 292.834 822.28 292.549 823.631 291.979C824.982 291.41 826.007 290.612 826.707 289.587C827.423 288.545 827.781 287.316 827.781 285.9C827.781 284.094 827.179 282.702 825.975 281.726C824.77 280.733 823.134 280.236 821.067 280.236C819.798 280.236 818.642 280.367 817.601 280.627C816.559 280.887 815.582 281.245 814.671 281.701C813.759 282.157 812.848 282.686 811.937 283.288L809.886 280.505C811.188 279.496 812.775 278.625 814.646 277.893C816.518 277.16 818.642 276.794 821.019 276.794C824.664 276.794 827.399 277.624 829.222 279.284C831.045 280.944 831.956 283.06 831.956 285.632Z" fill="#FF0000"/>
<path d="M578.211 363.699H580.379L581.277 384.305H577.312L578.211 363.699ZM581.648 357.762C581.648 358.673 581.421 359.324 580.965 359.715C580.522 360.092 579.975 360.281 579.324 360.281C578.673 360.281 578.12 360.092 577.664 359.715C577.221 359.324 577 358.673 577 357.762C577 356.876 577.221 356.232 577.664 355.828C578.12 355.411 578.673 355.203 579.324 355.203C579.975 355.203 580.522 355.411 580.965 355.828C581.421 356.232 581.648 356.876 581.648 357.762ZM588.562 377V348.445H591.883V374.031H604.559V377H588.562ZM627.43 366.258C627.43 368.016 627.202 369.585 626.746 370.965C626.29 372.345 625.633 373.51 624.773 374.461C623.914 375.411 622.872 376.141 621.648 376.648C620.438 377.143 619.064 377.391 617.527 377.391C616.095 377.391 614.78 377.143 613.582 376.648C612.397 376.141 611.368 375.411 610.496 374.461C609.637 373.51 608.966 372.345 608.484 370.965C608.016 369.585 607.781 368.016 607.781 366.258C607.781 363.914 608.178 361.922 608.973 360.281C609.767 358.628 610.9 357.371 612.371 356.512C613.855 355.639 615.62 355.203 617.664 355.203C619.617 355.203 621.323 355.639 622.781 356.512C624.253 357.384 625.392 358.647 626.199 360.301C627.02 361.941 627.43 363.927 627.43 366.258ZM611.141 366.258C611.141 367.977 611.368 369.467 611.824 370.73C612.28 371.993 612.983 372.97 613.934 373.66C614.884 374.35 616.108 374.695 617.605 374.695C619.09 374.695 620.307 374.35 621.258 373.66C622.221 372.97 622.931 371.993 623.387 370.73C623.842 369.467 624.07 367.977 624.07 366.258C624.07 364.552 623.842 363.081 623.387 361.844C622.931 360.594 622.228 359.63 621.277 358.953C620.327 358.276 619.096 357.938 617.586 357.938C615.359 357.938 613.725 358.673 612.684 360.145C611.655 361.616 611.141 363.654 611.141 366.258ZM657.273 371.141C657.273 372.508 656.928 373.66 656.238 374.598C655.561 375.522 654.585 376.219 653.309 376.688C652.046 377.156 650.535 377.391 648.777 377.391C647.28 377.391 645.984 377.273 644.891 377.039C643.797 376.805 642.84 376.473 642.02 376.043V373.055C642.892 373.484 643.934 373.875 645.145 374.227C646.355 374.578 647.592 374.754 648.855 374.754C650.704 374.754 652.046 374.454 652.879 373.855C653.712 373.257 654.129 372.443 654.129 371.414C654.129 370.828 653.96 370.314 653.621 369.871C653.296 369.415 652.742 368.979 651.961 368.562C651.18 368.133 650.099 367.664 648.719 367.156C647.352 366.635 646.167 366.121 645.164 365.613C644.174 365.092 643.406 364.461 642.859 363.719C642.326 362.977 642.059 362.013 642.059 360.828C642.059 359.018 642.788 357.632 644.246 356.668C645.717 355.691 647.645 355.203 650.027 355.203C651.316 355.203 652.521 355.333 653.641 355.594C654.773 355.841 655.828 356.18 656.805 356.609L655.711 359.207C654.826 358.829 653.882 358.51 652.879 358.25C651.876 357.99 650.854 357.859 649.812 357.859C648.315 357.859 647.163 358.107 646.355 358.602C645.561 359.096 645.164 359.773 645.164 360.633C645.164 361.297 645.346 361.844 645.711 362.273C646.089 362.703 646.688 363.107 647.508 363.484C648.328 363.862 649.409 364.305 650.75 364.812C652.091 365.307 653.25 365.822 654.227 366.355C655.203 366.876 655.952 367.514 656.473 368.27C657.007 369.012 657.273 369.969 657.273 371.141ZM670.73 355.203C672.553 355.203 674.116 355.607 675.418 356.414C676.72 357.221 677.716 358.354 678.406 359.812C679.096 361.258 679.441 362.951 679.441 364.891V366.902H664.656C664.695 369.415 665.32 371.329 666.531 372.645C667.742 373.96 669.448 374.617 671.648 374.617C673.003 374.617 674.201 374.493 675.242 374.246C676.284 373.999 677.365 373.634 678.484 373.152V376.004C677.404 376.486 676.329 376.837 675.262 377.059C674.207 377.28 672.957 377.391 671.512 377.391C669.454 377.391 667.658 376.974 666.121 376.141C664.598 375.294 663.413 374.057 662.566 372.43C661.72 370.802 661.297 368.81 661.297 366.453C661.297 364.148 661.681 362.156 662.449 360.477C663.23 358.784 664.324 357.482 665.73 356.57C667.15 355.659 668.816 355.203 670.73 355.203ZM670.691 357.859C668.96 357.859 667.579 358.426 666.551 359.559C665.522 360.691 664.91 362.273 664.715 364.305H676.043C676.03 363.029 675.828 361.909 675.438 360.945C675.06 359.969 674.48 359.214 673.699 358.68C672.918 358.133 671.915 357.859 670.691 357.859ZM695.086 355.203C697.625 355.203 699.546 355.828 700.848 357.078C702.15 358.315 702.801 360.307 702.801 363.055V377H699.598V363.27C699.598 361.486 699.188 360.151 698.367 359.266C697.56 358.38 696.316 357.938 694.637 357.938C692.267 357.938 690.6 358.608 689.637 359.949C688.673 361.29 688.191 363.237 688.191 365.789V377H684.949V355.594H687.566L688.055 358.68H688.23C688.686 357.924 689.266 357.293 689.969 356.785C690.672 356.264 691.46 355.874 692.332 355.613C693.204 355.34 694.122 355.203 695.086 355.203ZM716.395 374.734C716.928 374.734 717.475 374.689 718.035 374.598C718.595 374.507 719.051 374.396 719.402 374.266V376.785C719.025 376.954 718.497 377.098 717.82 377.215C717.156 377.332 716.505 377.391 715.867 377.391C714.734 377.391 713.706 377.195 712.781 376.805C711.857 376.401 711.115 375.724 710.555 374.773C710.008 373.823 709.734 372.508 709.734 370.828V358.133H706.688V356.551L709.754 355.281L711.043 350.633H712.996V355.594H719.266V358.133H712.996V370.73C712.996 372.072 713.302 373.074 713.914 373.738C714.539 374.402 715.366 374.734 716.395 374.734ZM726.98 355.594V377H723.738V355.594H726.98ZM725.398 347.586C725.932 347.586 726.388 347.762 726.766 348.113C727.156 348.452 727.352 348.986 727.352 349.715C727.352 350.431 727.156 350.965 726.766 351.316C726.388 351.668 725.932 351.844 725.398 351.844C724.839 351.844 724.37 351.668 723.992 351.316C723.628 350.965 723.445 350.431 723.445 349.715C723.445 348.986 723.628 348.452 723.992 348.113C724.37 347.762 724.839 347.586 725.398 347.586ZM757.098 355.203C759.454 355.203 761.232 355.822 762.43 357.059C763.628 358.283 764.227 360.255 764.227 362.977V377H761.023V363.133C761.023 361.401 760.646 360.105 759.891 359.246C759.148 358.374 758.042 357.938 756.57 357.938C754.5 357.938 752.996 358.536 752.059 359.734C751.121 360.932 750.652 362.697 750.652 365.027V377H747.43V363.133C747.43 361.974 747.26 361.01 746.922 360.242C746.596 359.474 746.102 358.901 745.438 358.523C744.786 358.133 743.96 357.938 742.957 357.938C741.538 357.938 740.398 358.23 739.539 358.816C738.68 359.402 738.055 360.275 737.664 361.434C737.286 362.579 737.098 363.992 737.098 365.672V377H733.855V355.594H736.473L736.961 358.621H737.137C737.566 357.879 738.107 357.254 738.758 356.746C739.409 356.238 740.138 355.854 740.945 355.594C741.753 355.333 742.612 355.203 743.523 355.203C745.151 355.203 746.512 355.509 747.605 356.121C748.712 356.72 749.513 357.638 750.008 358.875H750.184C750.887 357.638 751.85 356.72 753.074 356.121C754.298 355.509 755.639 355.203 757.098 355.203ZM789.344 366.258C789.344 368.016 789.116 369.585 788.66 370.965C788.204 372.345 787.547 373.51 786.688 374.461C785.828 375.411 784.786 376.141 783.562 376.648C782.352 377.143 780.978 377.391 779.441 377.391C778.009 377.391 776.694 377.143 775.496 376.648C774.311 376.141 773.283 375.411 772.41 374.461C771.551 373.51 770.88 372.345 770.398 370.965C769.93 369.585 769.695 368.016 769.695 366.258C769.695 363.914 770.092 361.922 770.887 360.281C771.681 358.628 772.814 357.371 774.285 356.512C775.77 355.639 777.534 355.203 779.578 355.203C781.531 355.203 783.237 355.639 784.695 356.512C786.167 357.384 787.306 358.647 788.113 360.301C788.934 361.941 789.344 363.927 789.344 366.258ZM773.055 366.258C773.055 367.977 773.283 369.467 773.738 370.73C774.194 371.993 774.897 372.97 775.848 373.66C776.798 374.35 778.022 374.695 779.52 374.695C781.004 374.695 782.221 374.35 783.172 373.66C784.135 372.97 784.845 371.993 785.301 370.73C785.757 369.467 785.984 367.977 785.984 366.258C785.984 364.552 785.757 363.081 785.301 361.844C784.845 360.594 784.142 359.63 783.191 358.953C782.241 358.276 781.01 357.938 779.5 357.938C777.273 357.938 775.639 358.673 774.598 360.145C773.569 361.616 773.055 363.654 773.055 366.258ZM808.797 371.141C808.797 372.508 808.452 373.66 807.762 374.598C807.085 375.522 806.108 376.219 804.832 376.688C803.569 377.156 802.059 377.391 800.301 377.391C798.803 377.391 797.508 377.273 796.414 377.039C795.32 376.805 794.363 376.473 793.543 376.043V373.055C794.415 373.484 795.457 373.875 796.668 374.227C797.879 374.578 799.116 374.754 800.379 374.754C802.228 374.754 803.569 374.454 804.402 373.855C805.236 373.257 805.652 372.443 805.652 371.414C805.652 370.828 805.483 370.314 805.145 369.871C804.819 369.415 804.266 368.979 803.484 368.562C802.703 368.133 801.622 367.664 800.242 367.156C798.875 366.635 797.69 366.121 796.688 365.613C795.698 365.092 794.93 364.461 794.383 363.719C793.849 362.977 793.582 362.013 793.582 360.828C793.582 359.018 794.311 357.632 795.77 356.668C797.241 355.691 799.168 355.203 801.551 355.203C802.84 355.203 804.044 355.333 805.164 355.594C806.297 355.841 807.352 356.18 808.328 356.609L807.234 359.207C806.349 358.829 805.405 358.51 804.402 358.25C803.4 357.99 802.378 357.859 801.336 357.859C799.839 357.859 798.686 358.107 797.879 358.602C797.085 359.096 796.688 359.773 796.688 360.633C796.688 361.297 796.87 361.844 797.234 362.273C797.612 362.703 798.211 363.107 799.031 363.484C799.852 363.862 800.932 364.305 802.273 364.812C803.615 365.307 804.773 365.822 805.75 366.355C806.727 366.876 807.475 367.514 807.996 368.27C808.53 369.012 808.797 369.969 808.797 371.141ZM817.723 372.352L817.977 372.801C817.742 373.751 817.443 374.767 817.078 375.848C816.727 376.928 816.336 378.009 815.906 379.09C815.49 380.184 815.066 381.206 814.637 382.156H812.215C812.488 381.115 812.755 380.014 813.016 378.855C813.276 377.71 813.51 376.577 813.719 375.457C813.94 374.324 814.116 373.289 814.246 372.352H817.723ZM844.891 355.203C847.43 355.203 849.35 355.828 850.652 357.078C851.954 358.315 852.605 360.307 852.605 363.055V377H849.402V363.27C849.402 361.486 848.992 360.151 848.172 359.266C847.365 358.38 846.121 357.938 844.441 357.938C842.072 357.938 840.405 358.608 839.441 359.949C838.478 361.29 837.996 363.237 837.996 365.789V377H834.754V355.594H837.371L837.859 358.68H838.035C838.491 357.924 839.07 357.293 839.773 356.785C840.477 356.264 841.264 355.874 842.137 355.613C843.009 355.34 843.927 355.203 844.891 355.203ZM877.742 366.258C877.742 368.016 877.514 369.585 877.059 370.965C876.603 372.345 875.945 373.51 875.086 374.461C874.227 375.411 873.185 376.141 871.961 376.648C870.75 377.143 869.376 377.391 867.84 377.391C866.408 377.391 865.092 377.143 863.895 376.648C862.71 376.141 861.681 375.411 860.809 374.461C859.949 373.51 859.279 372.345 858.797 370.965C858.328 369.585 858.094 368.016 858.094 366.258C858.094 363.914 858.491 361.922 859.285 360.281C860.079 358.628 861.212 357.371 862.684 356.512C864.168 355.639 865.932 355.203 867.977 355.203C869.93 355.203 871.635 355.639 873.094 356.512C874.565 357.384 875.704 358.647 876.512 360.301C877.332 361.941 877.742 363.927 877.742 366.258ZM861.453 366.258C861.453 367.977 861.681 369.467 862.137 370.73C862.592 371.993 863.296 372.97 864.246 373.66C865.197 374.35 866.421 374.695 867.918 374.695C869.402 374.695 870.62 374.35 871.57 373.66C872.534 372.97 873.243 371.993 873.699 370.73C874.155 369.467 874.383 367.977 874.383 366.258C874.383 364.552 874.155 363.081 873.699 361.844C873.243 360.594 872.54 359.63 871.59 358.953C870.639 358.276 869.409 357.938 867.898 357.938C865.672 357.938 864.038 358.673 862.996 360.145C861.967 361.616 861.453 363.654 861.453 366.258ZM598.895 428.734C599.428 428.734 599.975 428.689 600.535 428.598C601.095 428.507 601.551 428.396 601.902 428.266V430.785C601.525 430.954 600.997 431.098 600.32 431.215C599.656 431.332 599.005 431.391 598.367 431.391C597.234 431.391 596.206 431.195 595.281 430.805C594.357 430.401 593.615 429.724 593.055 428.773C592.508 427.823 592.234 426.508 592.234 424.828V412.133H589.188V410.551L592.254 409.281L593.543 404.633H595.496V409.594H601.766V412.133H595.496V424.73C595.496 426.072 595.802 427.074 596.414 427.738C597.039 428.402 597.866 428.734 598.895 428.734ZM609.48 409.594V431H606.238V409.594H609.48ZM607.898 401.586C608.432 401.586 608.888 401.762 609.266 402.113C609.656 402.452 609.852 402.986 609.852 403.715C609.852 404.431 609.656 404.965 609.266 405.316C608.888 405.668 608.432 405.844 607.898 405.844C607.339 405.844 606.87 405.668 606.492 405.316C606.128 404.965 605.945 404.431 605.945 403.715C605.945 402.986 606.128 402.452 606.492 402.113C606.87 401.762 607.339 401.586 607.898 401.586ZM624.598 409.203C626.421 409.203 627.983 409.607 629.285 410.414C630.587 411.221 631.583 412.354 632.273 413.812C632.964 415.258 633.309 416.951 633.309 418.891V420.902H618.523C618.562 423.415 619.188 425.329 620.398 426.645C621.609 427.96 623.315 428.617 625.516 428.617C626.87 428.617 628.068 428.493 629.109 428.246C630.151 427.999 631.232 427.634 632.352 427.152V430.004C631.271 430.486 630.197 430.837 629.129 431.059C628.074 431.28 626.824 431.391 625.379 431.391C623.322 431.391 621.525 430.974 619.988 430.141C618.465 429.294 617.28 428.057 616.434 426.43C615.587 424.802 615.164 422.81 615.164 420.453C615.164 418.148 615.548 416.156 616.316 414.477C617.098 412.784 618.191 411.482 619.598 410.57C621.017 409.659 622.684 409.203 624.598 409.203ZM624.559 411.859C622.827 411.859 621.447 412.426 620.418 413.559C619.389 414.691 618.777 416.273 618.582 418.305H629.91C629.897 417.029 629.695 415.909 629.305 414.945C628.927 413.969 628.348 413.214 627.566 412.68C626.785 412.133 625.783 411.859 624.559 411.859ZM648.953 409.203C651.492 409.203 653.413 409.828 654.715 411.078C656.017 412.315 656.668 414.307 656.668 417.055V431H653.465V417.27C653.465 415.486 653.055 414.151 652.234 413.266C651.427 412.38 650.184 411.938 648.504 411.938C646.134 411.938 644.467 412.608 643.504 413.949C642.54 415.29 642.059 417.237 642.059 419.789V431H638.816V409.594H641.434L641.922 412.68H642.098C642.553 411.924 643.133 411.293 643.836 410.785C644.539 410.264 645.327 409.874 646.199 409.613C647.072 409.34 647.99 409.203 648.953 409.203ZM671.59 409.203C673.413 409.203 674.975 409.607 676.277 410.414C677.579 411.221 678.576 412.354 679.266 413.812C679.956 415.258 680.301 416.951 680.301 418.891V420.902H665.516C665.555 423.415 666.18 425.329 667.391 426.645C668.602 427.96 670.307 428.617 672.508 428.617C673.862 428.617 675.06 428.493 676.102 428.246C677.143 427.999 678.224 427.634 679.344 427.152V430.004C678.263 430.486 677.189 430.837 676.121 431.059C675.066 431.28 673.816 431.391 672.371 431.391C670.314 431.391 668.517 430.974 666.98 430.141C665.457 429.294 664.272 428.057 663.426 426.43C662.579 424.802 662.156 422.81 662.156 420.453C662.156 418.148 662.54 416.156 663.309 414.477C664.09 412.784 665.184 411.482 666.59 410.57C668.009 409.659 669.676 409.203 671.59 409.203ZM671.551 411.859C669.819 411.859 668.439 412.426 667.41 413.559C666.382 414.691 665.77 416.273 665.574 418.305H676.902C676.889 417.029 676.688 415.909 676.297 414.945C675.919 413.969 675.34 413.214 674.559 412.68C673.777 412.133 672.775 411.859 671.551 411.859ZM699.656 425.141C699.656 426.508 699.311 427.66 698.621 428.598C697.944 429.522 696.967 430.219 695.691 430.688C694.428 431.156 692.918 431.391 691.16 431.391C689.663 431.391 688.367 431.273 687.273 431.039C686.18 430.805 685.223 430.473 684.402 430.043V427.055C685.275 427.484 686.316 427.875 687.527 428.227C688.738 428.578 689.975 428.754 691.238 428.754C693.087 428.754 694.428 428.454 695.262 427.855C696.095 427.257 696.512 426.443 696.512 425.414C696.512 424.828 696.342 424.314 696.004 423.871C695.678 423.415 695.125 422.979 694.344 422.562C693.562 422.133 692.482 421.664 691.102 421.156C689.734 420.635 688.549 420.121 687.547 419.613C686.557 419.092 685.789 418.461 685.242 417.719C684.708 416.977 684.441 416.013 684.441 414.828C684.441 413.018 685.171 411.632 686.629 410.668C688.1 409.691 690.027 409.203 692.41 409.203C693.699 409.203 694.904 409.333 696.023 409.594C697.156 409.841 698.211 410.18 699.188 410.609L698.094 413.207C697.208 412.829 696.264 412.51 695.262 412.25C694.259 411.99 693.237 411.859 692.195 411.859C690.698 411.859 689.546 412.107 688.738 412.602C687.944 413.096 687.547 413.773 687.547 414.633C687.547 415.297 687.729 415.844 688.094 416.273C688.471 416.703 689.07 417.107 689.891 417.484C690.711 417.862 691.792 418.305 693.133 418.812C694.474 419.307 695.633 419.822 696.609 420.355C697.586 420.876 698.335 421.514 698.855 422.27C699.389 423.012 699.656 423.969 699.656 425.141ZM725.32 409.203C727.99 409.203 730.118 410.121 731.707 411.957C733.296 413.793 734.09 416.553 734.09 420.238C734.09 422.673 733.725 424.717 732.996 426.371C732.267 428.025 731.238 429.275 729.91 430.121C728.595 430.967 727.039 431.391 725.242 431.391C724.109 431.391 723.113 431.241 722.254 430.941C721.395 430.642 720.659 430.238 720.047 429.73C719.435 429.223 718.927 428.669 718.523 428.07H718.289C718.328 428.578 718.374 429.19 718.426 429.906C718.491 430.622 718.523 431.247 718.523 431.781V440.57H715.262V409.594H717.938L718.367 412.758H718.523C718.94 412.107 719.448 411.514 720.047 410.98C720.646 410.434 721.375 410.004 722.234 409.691C723.107 409.366 724.135 409.203 725.32 409.203ZM724.754 411.938C723.27 411.938 722.072 412.224 721.16 412.797C720.262 413.37 719.604 414.229 719.188 415.375C718.771 416.508 718.549 417.934 718.523 419.652V420.277C718.523 422.087 718.719 423.617 719.109 424.867C719.513 426.117 720.171 427.068 721.082 427.719C722.007 428.37 723.243 428.695 724.793 428.695C726.121 428.695 727.228 428.337 728.113 427.621C728.999 426.905 729.656 425.909 730.086 424.633C730.529 423.344 730.75 421.866 730.75 420.199C730.75 417.673 730.255 415.668 729.266 414.184C728.289 412.686 726.785 411.938 724.754 411.938ZM747.996 409.203C749.819 409.203 751.382 409.607 752.684 410.414C753.986 411.221 754.982 412.354 755.672 413.812C756.362 415.258 756.707 416.951 756.707 418.891V420.902H741.922C741.961 423.415 742.586 425.329 743.797 426.645C745.008 427.96 746.714 428.617 748.914 428.617C750.268 428.617 751.466 428.493 752.508 428.246C753.549 427.999 754.63 427.634 755.75 427.152V430.004C754.669 430.486 753.595 430.837 752.527 431.059C751.473 431.28 750.223 431.391 748.777 431.391C746.72 431.391 744.923 430.974 743.387 430.141C741.863 429.294 740.678 428.057 739.832 426.43C738.986 424.802 738.562 422.81 738.562 420.453C738.562 418.148 738.947 416.156 739.715 414.477C740.496 412.784 741.59 411.482 742.996 410.57C744.415 409.659 746.082 409.203 747.996 409.203ZM747.957 411.859C746.225 411.859 744.845 412.426 743.816 413.559C742.788 414.691 742.176 416.273 741.98 418.305H753.309C753.296 417.029 753.094 415.909 752.703 414.945C752.326 413.969 751.746 413.214 750.965 412.68C750.184 412.133 749.181 411.859 747.957 411.859ZM771.941 409.203C772.371 409.203 772.82 409.229 773.289 409.281C773.758 409.32 774.174 409.379 774.539 409.457L774.129 412.465C773.777 412.374 773.387 412.302 772.957 412.25C772.527 412.198 772.124 412.172 771.746 412.172C770.887 412.172 770.073 412.348 769.305 412.699C768.549 413.038 767.885 413.533 767.312 414.184C766.74 414.822 766.29 415.596 765.965 416.508C765.639 417.406 765.477 418.409 765.477 419.516V431H762.215V409.594H764.91L765.262 413.539H765.398C765.841 412.745 766.375 412.022 767 411.371C767.625 410.707 768.348 410.18 769.168 409.789C770.001 409.398 770.926 409.203 771.941 409.203ZM801.824 409.203C804.181 409.203 805.958 409.822 807.156 411.059C808.354 412.283 808.953 414.255 808.953 416.977V431H805.75V417.133C805.75 415.401 805.372 414.105 804.617 413.246C803.875 412.374 802.768 411.938 801.297 411.938C799.227 411.938 797.723 412.536 796.785 413.734C795.848 414.932 795.379 416.697 795.379 419.027V431H792.156V417.133C792.156 415.974 791.987 415.01 791.648 414.242C791.323 413.474 790.828 412.901 790.164 412.523C789.513 412.133 788.686 411.938 787.684 411.938C786.264 411.938 785.125 412.23 784.266 412.816C783.406 413.402 782.781 414.275 782.391 415.434C782.013 416.579 781.824 417.992 781.824 419.672V431H778.582V409.594H781.199L781.688 412.621H781.863C782.293 411.879 782.833 411.254 783.484 410.746C784.135 410.238 784.865 409.854 785.672 409.594C786.479 409.333 787.339 409.203 788.25 409.203C789.878 409.203 791.238 409.509 792.332 410.121C793.439 410.72 794.24 411.638 794.734 412.875H794.91C795.613 411.638 796.577 410.72 797.801 410.121C799.025 409.509 800.366 409.203 801.824 409.203ZM818.855 409.594V431H815.613V409.594H818.855ZM817.273 401.586C817.807 401.586 818.263 401.762 818.641 402.113C819.031 402.452 819.227 402.986 819.227 403.715C819.227 404.431 819.031 404.965 818.641 405.316C818.263 405.668 817.807 405.844 817.273 405.844C816.714 405.844 816.245 405.668 815.867 405.316C815.503 404.965 815.32 404.431 815.32 403.715C815.32 402.986 815.503 402.452 815.867 402.113C816.245 401.762 816.714 401.586 817.273 401.586ZM839.578 425.141C839.578 426.508 839.233 427.66 838.543 428.598C837.866 429.522 836.889 430.219 835.613 430.688C834.35 431.156 832.84 431.391 831.082 431.391C829.585 431.391 828.289 431.273 827.195 431.039C826.102 430.805 825.145 430.473 824.324 430.043V427.055C825.197 427.484 826.238 427.875 827.449 428.227C828.66 428.578 829.897 428.754 831.16 428.754C833.009 428.754 834.35 428.454 835.184 427.855C836.017 427.257 836.434 426.443 836.434 425.414C836.434 424.828 836.264 424.314 835.926 423.871C835.6 423.415 835.047 422.979 834.266 422.562C833.484 422.133 832.404 421.664 831.023 421.156C829.656 420.635 828.471 420.121 827.469 419.613C826.479 419.092 825.711 418.461 825.164 417.719C824.63 416.977 824.363 416.013 824.363 414.828C824.363 413.018 825.092 411.632 826.551 410.668C828.022 409.691 829.949 409.203 832.332 409.203C833.621 409.203 834.826 409.333 835.945 409.594C837.078 409.841 838.133 410.18 839.109 410.609L838.016 413.207C837.13 412.829 836.186 412.51 835.184 412.25C834.181 411.99 833.159 411.859 832.117 411.859C830.62 411.859 829.467 412.107 828.66 412.602C827.866 413.096 827.469 413.773 827.469 414.633C827.469 415.297 827.651 415.844 828.016 416.273C828.393 416.703 828.992 417.107 829.812 417.484C830.633 417.862 831.714 418.305 833.055 418.812C834.396 419.307 835.555 419.822 836.531 420.355C837.508 420.876 838.257 421.514 838.777 422.27C839.311 423.012 839.578 423.969 839.578 425.141ZM863.25 420.258C863.25 422.016 863.022 423.585 862.566 424.965C862.111 426.345 861.453 427.51 860.594 428.461C859.734 429.411 858.693 430.141 857.469 430.648C856.258 431.143 854.884 431.391 853.348 431.391C851.915 431.391 850.6 431.143 849.402 430.648C848.217 430.141 847.189 429.411 846.316 428.461C845.457 427.51 844.786 426.345 844.305 424.965C843.836 423.585 843.602 422.016 843.602 420.258C843.602 417.914 843.999 415.922 844.793 414.281C845.587 412.628 846.72 411.371 848.191 410.512C849.676 409.639 851.44 409.203 853.484 409.203C855.438 409.203 857.143 409.639 858.602 410.512C860.073 411.384 861.212 412.647 862.02 414.301C862.84 415.941 863.25 417.927 863.25 420.258ZM846.961 420.258C846.961 421.977 847.189 423.467 847.645 424.73C848.1 425.993 848.803 426.97 849.754 427.66C850.704 428.35 851.928 428.695 853.426 428.695C854.91 428.695 856.128 428.35 857.078 427.66C858.042 426.97 858.751 425.993 859.207 424.73C859.663 423.467 859.891 421.977 859.891 420.258C859.891 418.552 859.663 417.081 859.207 415.844C858.751 414.594 858.048 413.63 857.098 412.953C856.147 412.276 854.917 411.938 853.406 411.938C851.18 411.938 849.546 412.673 848.504 414.145C847.475 415.616 846.961 417.654 846.961 420.258ZM603.133 463.203C605.802 463.203 607.931 464.121 609.52 465.957C611.108 467.793 611.902 470.553 611.902 474.238C611.902 476.673 611.538 478.717 610.809 480.371C610.079 482.025 609.051 483.275 607.723 484.121C606.408 484.967 604.852 485.391 603.055 485.391C601.922 485.391 600.926 485.241 600.066 484.941C599.207 484.642 598.471 484.238 597.859 483.73C597.247 483.223 596.74 482.669 596.336 482.07H596.102C596.141 482.578 596.186 483.19 596.238 483.906C596.303 484.622 596.336 485.247 596.336 485.781V494.57H593.074V463.594H595.75L596.18 466.758H596.336C596.753 466.107 597.26 465.514 597.859 464.98C598.458 464.434 599.188 464.004 600.047 463.691C600.919 463.366 601.948 463.203 603.133 463.203ZM602.566 465.938C601.082 465.938 599.884 466.224 598.973 466.797C598.074 467.37 597.417 468.229 597 469.375C596.583 470.508 596.362 471.934 596.336 473.652V474.277C596.336 476.087 596.531 477.617 596.922 478.867C597.326 480.117 597.983 481.068 598.895 481.719C599.819 482.37 601.056 482.695 602.605 482.695C603.934 482.695 605.04 482.337 605.926 481.621C606.811 480.905 607.469 479.909 607.898 478.633C608.341 477.344 608.562 475.866 608.562 474.199C608.562 471.673 608.068 469.668 607.078 468.184C606.102 466.686 604.598 465.938 602.566 465.938ZM625.574 463.242C628.126 463.242 630.021 463.815 631.258 464.961C632.495 466.107 633.113 467.936 633.113 470.449V485H630.75L630.125 481.836H629.969C629.37 482.617 628.745 483.275 628.094 483.809C627.443 484.329 626.688 484.727 625.828 485C624.982 485.26 623.94 485.391 622.703 485.391C621.401 485.391 620.242 485.163 619.227 484.707C618.224 484.251 617.43 483.561 616.844 482.637C616.271 481.712 615.984 480.54 615.984 479.121C615.984 476.986 616.831 475.345 618.523 474.199C620.216 473.053 622.794 472.428 626.258 472.324L629.949 472.168V470.859C629.949 469.01 629.552 467.715 628.758 466.973C627.964 466.23 626.844 465.859 625.398 465.859C624.279 465.859 623.211 466.022 622.195 466.348C621.18 466.673 620.216 467.057 619.305 467.5L618.309 465.039C619.272 464.544 620.379 464.121 621.629 463.77C622.879 463.418 624.194 463.242 625.574 463.242ZM629.91 474.453L626.648 474.59C623.979 474.694 622.098 475.13 621.004 475.898C619.91 476.667 619.363 477.754 619.363 479.16C619.363 480.384 619.734 481.289 620.477 481.875C621.219 482.461 622.202 482.754 623.426 482.754C625.327 482.754 626.883 482.227 628.094 481.172C629.305 480.117 629.91 478.535 629.91 476.426V474.453ZM649.52 463.203C649.949 463.203 650.398 463.229 650.867 463.281C651.336 463.32 651.753 463.379 652.117 463.457L651.707 466.465C651.355 466.374 650.965 466.302 650.535 466.25C650.105 466.198 649.702 466.172 649.324 466.172C648.465 466.172 647.651 466.348 646.883 466.699C646.128 467.038 645.464 467.533 644.891 468.184C644.318 468.822 643.868 469.596 643.543 470.508C643.217 471.406 643.055 472.409 643.055 473.516V485H639.793V463.594H642.488L642.84 467.539H642.977C643.419 466.745 643.953 466.022 644.578 465.371C645.203 464.707 645.926 464.18 646.746 463.789C647.579 463.398 648.504 463.203 649.52 463.203ZM664.168 463.242C666.72 463.242 668.615 463.815 669.852 464.961C671.089 466.107 671.707 467.936 671.707 470.449V485H669.344L668.719 481.836H668.562C667.964 482.617 667.339 483.275 666.688 483.809C666.036 484.329 665.281 484.727 664.422 485C663.576 485.26 662.534 485.391 661.297 485.391C659.995 485.391 658.836 485.163 657.82 484.707C656.818 484.251 656.023 483.561 655.438 482.637C654.865 481.712 654.578 480.54 654.578 479.121C654.578 476.986 655.424 475.345 657.117 474.199C658.81 473.053 661.388 472.428 664.852 472.324L668.543 472.168V470.859C668.543 469.01 668.146 467.715 667.352 466.973C666.557 466.23 665.438 465.859 663.992 465.859C662.872 465.859 661.805 466.022 660.789 466.348C659.773 466.673 658.81 467.057 657.898 467.5L656.902 465.039C657.866 464.544 658.973 464.121 660.223 463.77C661.473 463.418 662.788 463.242 664.168 463.242ZM668.504 474.453L665.242 474.59C662.573 474.694 660.691 475.13 659.598 475.898C658.504 476.667 657.957 477.754 657.957 479.16C657.957 480.384 658.328 481.289 659.07 481.875C659.812 482.461 660.796 482.754 662.02 482.754C663.921 482.754 665.477 482.227 666.688 481.172C667.898 480.117 668.504 478.535 668.504 476.426V474.453ZM696.785 463.242C699.337 463.242 701.232 463.815 702.469 464.961C703.706 466.107 704.324 467.936 704.324 470.449V485H701.961L701.336 481.836H701.18C700.581 482.617 699.956 483.275 699.305 483.809C698.654 484.329 697.898 484.727 697.039 485C696.193 485.26 695.151 485.391 693.914 485.391C692.612 485.391 691.453 485.163 690.438 484.707C689.435 484.251 688.641 483.561 688.055 482.637C687.482 481.712 687.195 480.54 687.195 479.121C687.195 476.986 688.042 475.345 689.734 474.199C691.427 473.053 694.005 472.428 697.469 472.324L701.16 472.168V470.859C701.16 469.01 700.763 467.715 699.969 466.973C699.174 466.23 698.055 465.859 696.609 465.859C695.49 465.859 694.422 466.022 693.406 466.348C692.391 466.673 691.427 467.057 690.516 467.5L689.52 465.039C690.483 464.544 691.59 464.121 692.84 463.77C694.09 463.418 695.405 463.242 696.785 463.242ZM701.121 474.453L697.859 474.59C695.19 474.694 693.309 475.13 692.215 475.898C691.121 476.667 690.574 477.754 690.574 479.16C690.574 480.384 690.945 481.289 691.688 481.875C692.43 482.461 693.413 482.754 694.637 482.754C696.538 482.754 698.094 482.227 699.305 481.172C700.516 480.117 701.121 478.535 701.121 476.426V474.453ZM719.578 485.391C717.651 485.391 715.952 484.993 714.48 484.199C713.009 483.405 711.863 482.194 711.043 480.566C710.223 478.939 709.812 476.888 709.812 474.414C709.812 471.823 710.242 469.707 711.102 468.066C711.974 466.413 713.172 465.189 714.695 464.395C716.219 463.6 717.951 463.203 719.891 463.203C720.958 463.203 721.987 463.314 722.977 463.535C723.979 463.743 724.799 464.01 725.438 464.336L724.461 467.051C723.81 466.79 723.055 466.556 722.195 466.348C721.349 466.139 720.555 466.035 719.812 466.035C718.328 466.035 717.091 466.354 716.102 466.992C715.125 467.63 714.389 468.568 713.895 469.805C713.413 471.042 713.172 472.565 713.172 474.375C713.172 476.107 713.406 477.585 713.875 478.809C714.357 480.033 715.066 480.97 716.004 481.621C716.954 482.259 718.139 482.578 719.559 482.578C720.691 482.578 721.714 482.461 722.625 482.227C723.536 481.979 724.363 481.693 725.105 481.367V484.258C724.389 484.622 723.589 484.902 722.703 485.098C721.831 485.293 720.789 485.391 719.578 485.391ZM738.758 485.391C736.831 485.391 735.132 484.993 733.66 484.199C732.189 483.405 731.043 482.194 730.223 480.566C729.402 478.939 728.992 476.888 728.992 474.414C728.992 471.823 729.422 469.707 730.281 468.066C731.154 466.413 732.352 465.189 733.875 464.395C735.398 463.6 737.13 463.203 739.07 463.203C740.138 463.203 741.167 463.314 742.156 463.535C743.159 463.743 743.979 464.01 744.617 464.336L743.641 467.051C742.99 466.79 742.234 466.556 741.375 466.348C740.529 466.139 739.734 466.035 738.992 466.035C737.508 466.035 736.271 466.354 735.281 466.992C734.305 467.63 733.569 468.568 733.074 469.805C732.592 471.042 732.352 472.565 732.352 474.375C732.352 476.107 732.586 477.585 733.055 478.809C733.536 480.033 734.246 480.97 735.184 481.621C736.134 482.259 737.319 482.578 738.738 482.578C739.871 482.578 740.893 482.461 741.805 482.227C742.716 481.979 743.543 481.693 744.285 481.367V484.258C743.569 484.622 742.768 484.902 741.883 485.098C741.01 485.293 739.969 485.391 738.758 485.391ZM757.605 463.203C759.428 463.203 760.991 463.607 762.293 464.414C763.595 465.221 764.591 466.354 765.281 467.812C765.971 469.258 766.316 470.951 766.316 472.891V474.902H751.531C751.57 477.415 752.195 479.329 753.406 480.645C754.617 481.96 756.323 482.617 758.523 482.617C759.878 482.617 761.076 482.493 762.117 482.246C763.159 481.999 764.24 481.634 765.359 481.152V484.004C764.279 484.486 763.204 484.837 762.137 485.059C761.082 485.28 759.832 485.391 758.387 485.391C756.329 485.391 754.533 484.974 752.996 484.141C751.473 483.294 750.288 482.057 749.441 480.43C748.595 478.802 748.172 476.81 748.172 474.453C748.172 472.148 748.556 470.156 749.324 468.477C750.105 466.784 751.199 465.482 752.605 464.57C754.025 463.659 755.691 463.203 757.605 463.203ZM757.566 465.859C755.835 465.859 754.454 466.426 753.426 467.559C752.397 468.691 751.785 470.273 751.59 472.305H762.918C762.905 471.029 762.703 469.909 762.312 468.945C761.935 467.969 761.355 467.214 760.574 466.68C759.793 466.133 758.79 465.859 757.566 465.859ZM779.441 485.391C776.733 485.391 774.585 484.466 772.996 482.617C771.421 480.768 770.633 478.021 770.633 474.375C770.633 470.69 771.44 467.91 773.055 466.035C774.669 464.147 776.818 463.203 779.5 463.203C780.633 463.203 781.622 463.353 782.469 463.652C783.315 463.952 784.044 464.355 784.656 464.863C785.268 465.358 785.783 465.924 786.199 466.562H786.434C786.382 466.159 786.329 465.605 786.277 464.902C786.225 464.199 786.199 463.626 786.199 463.184V454.609H789.441V485H786.824L786.336 481.953H786.199C785.796 482.591 785.281 483.171 784.656 483.691C784.044 484.212 783.309 484.629 782.449 484.941C781.603 485.241 780.6 485.391 779.441 485.391ZM779.949 482.695C782.241 482.695 783.862 482.044 784.812 480.742C785.763 479.44 786.238 477.507 786.238 474.941V474.355C786.238 471.634 785.783 469.544 784.871 468.086C783.973 466.628 782.332 465.898 779.949 465.898C777.957 465.898 776.466 466.667 775.477 468.203C774.487 469.727 773.992 471.81 773.992 474.453C773.992 477.083 774.48 479.115 775.457 480.547C776.447 481.979 777.944 482.695 779.949 482.695ZM804.559 463.203C806.382 463.203 807.944 463.607 809.246 464.414C810.548 465.221 811.544 466.354 812.234 467.812C812.924 469.258 813.27 470.951 813.27 472.891V474.902H798.484C798.523 477.415 799.148 479.329 800.359 480.645C801.57 481.96 803.276 482.617 805.477 482.617C806.831 482.617 808.029 482.493 809.07 482.246C810.112 481.999 811.193 481.634 812.312 481.152V484.004C811.232 484.486 810.158 484.837 809.09 485.059C808.035 485.28 806.785 485.391 805.34 485.391C803.283 485.391 801.486 484.974 799.949 484.141C798.426 483.294 797.241 482.057 796.395 480.43C795.548 478.802 795.125 476.81 795.125 474.453C795.125 472.148 795.509 470.156 796.277 468.477C797.059 466.784 798.152 465.482 799.559 464.57C800.978 463.659 802.645 463.203 804.559 463.203ZM804.52 465.859C802.788 465.859 801.408 466.426 800.379 467.559C799.35 468.691 798.738 470.273 798.543 472.305H809.871C809.858 471.029 809.656 469.909 809.266 468.945C808.888 467.969 808.309 467.214 807.527 466.68C806.746 466.133 805.743 465.859 804.52 465.859ZM828.504 463.203C828.934 463.203 829.383 463.229 829.852 463.281C830.32 463.32 830.737 463.379 831.102 463.457L830.691 466.465C830.34 466.374 829.949 466.302 829.52 466.25C829.09 466.198 828.686 466.172 828.309 466.172C827.449 466.172 826.635 466.348 825.867 466.699C825.112 467.038 824.448 467.533 823.875 468.184C823.302 468.822 822.853 469.596 822.527 470.508C822.202 471.406 822.039 472.409 822.039 473.516V485H818.777V463.594H821.473L821.824 467.539H821.961C822.404 466.745 822.938 466.022 823.562 465.371C824.188 464.707 824.91 464.18 825.73 463.789C826.564 463.398 827.488 463.203 828.504 463.203ZM853.543 463.242C856.095 463.242 857.99 463.815 859.227 464.961C860.464 466.107 861.082 467.936 861.082 470.449V485H858.719L858.094 481.836H857.938C857.339 482.617 856.714 483.275 856.062 483.809C855.411 484.329 854.656 484.727 853.797 485C852.951 485.26 851.909 485.391 850.672 485.391C849.37 485.391 848.211 485.163 847.195 484.707C846.193 484.251 845.398 483.561 844.812 482.637C844.24 481.712 843.953 480.54 843.953 479.121C843.953 476.986 844.799 475.345 846.492 474.199C848.185 473.053 850.763 472.428 854.227 472.324L857.918 472.168V470.859C857.918 469.01 857.521 467.715 856.727 466.973C855.932 466.23 854.812 465.859 853.367 465.859C852.247 465.859 851.18 466.022 850.164 466.348C849.148 466.673 848.185 467.057 847.273 467.5L846.277 465.039C847.241 464.544 848.348 464.121 849.598 463.77C850.848 463.418 852.163 463.242 853.543 463.242ZM857.879 474.453L854.617 474.59C851.948 474.694 850.066 475.13 848.973 475.898C847.879 476.667 847.332 477.754 847.332 479.16C847.332 480.384 847.703 481.289 848.445 481.875C849.188 482.461 850.171 482.754 851.395 482.754C853.296 482.754 854.852 482.227 856.062 481.172C857.273 480.117 857.879 478.535 857.879 476.426V474.453ZM618.035 517.203C619.858 517.203 621.421 517.607 622.723 518.414C624.025 519.221 625.021 520.354 625.711 521.812C626.401 523.258 626.746 524.951 626.746 526.891V528.902H611.961C612 531.415 612.625 533.329 613.836 534.645C615.047 535.96 616.753 536.617 618.953 536.617C620.307 536.617 621.505 536.493 622.547 536.246C623.589 535.999 624.669 535.634 625.789 535.152V538.004C624.708 538.486 623.634 538.837 622.566 539.059C621.512 539.28 620.262 539.391 618.816 539.391C616.759 539.391 614.962 538.974 613.426 538.141C611.902 537.294 610.717 536.057 609.871 534.43C609.025 532.802 608.602 530.81 608.602 528.453C608.602 526.148 608.986 524.156 609.754 522.477C610.535 520.784 611.629 519.482 613.035 518.57C614.454 517.659 616.121 517.203 618.035 517.203ZM617.996 519.859C616.264 519.859 614.884 520.426 613.855 521.559C612.827 522.691 612.215 524.273 612.02 526.305H623.348C623.335 525.029 623.133 523.909 622.742 522.945C622.365 521.969 621.785 521.214 621.004 520.68C620.223 520.133 619.22 519.859 617.996 519.859ZM646.102 533.141C646.102 534.508 645.757 535.66 645.066 536.598C644.389 537.522 643.413 538.219 642.137 538.688C640.874 539.156 639.363 539.391 637.605 539.391C636.108 539.391 634.812 539.273 633.719 539.039C632.625 538.805 631.668 538.473 630.848 538.043V535.055C631.72 535.484 632.762 535.875 633.973 536.227C635.184 536.578 636.421 536.754 637.684 536.754C639.533 536.754 640.874 536.454 641.707 535.855C642.54 535.257 642.957 534.443 642.957 533.414C642.957 532.828 642.788 532.314 642.449 531.871C642.124 531.415 641.57 530.979 640.789 530.562C640.008 530.133 638.927 529.664 637.547 529.156C636.18 528.635 634.995 528.121 633.992 527.613C633.003 527.092 632.234 526.461 631.688 525.719C631.154 524.977 630.887 524.013 630.887 522.828C630.887 521.018 631.616 519.632 633.074 518.668C634.546 517.691 636.473 517.203 638.855 517.203C640.145 517.203 641.349 517.333 642.469 517.594C643.602 517.841 644.656 518.18 645.633 518.609L644.539 521.207C643.654 520.829 642.71 520.51 641.707 520.25C640.704 519.99 639.682 519.859 638.641 519.859C637.143 519.859 635.991 520.107 635.184 520.602C634.389 521.096 633.992 521.773 633.992 522.633C633.992 523.297 634.174 523.844 634.539 524.273C634.917 524.703 635.516 525.107 636.336 525.484C637.156 525.862 638.237 526.305 639.578 526.812C640.919 527.307 642.078 527.822 643.055 528.355C644.031 528.876 644.78 529.514 645.301 530.27C645.835 531.012 646.102 531.969 646.102 533.141ZM658.23 536.734C658.764 536.734 659.311 536.689 659.871 536.598C660.431 536.507 660.887 536.396 661.238 536.266V538.785C660.861 538.954 660.333 539.098 659.656 539.215C658.992 539.332 658.341 539.391 657.703 539.391C656.57 539.391 655.542 539.195 654.617 538.805C653.693 538.401 652.951 537.724 652.391 536.773C651.844 535.823 651.57 534.508 651.57 532.828V520.133H648.523V518.551L651.59 517.281L652.879 512.633H654.832V517.594H661.102V520.133H654.832V532.73C654.832 534.072 655.138 535.074 655.75 535.738C656.375 536.402 657.202 536.734 658.23 536.734ZM673.816 517.203C675.639 517.203 677.202 517.607 678.504 518.414C679.806 519.221 680.802 520.354 681.492 521.812C682.182 523.258 682.527 524.951 682.527 526.891V528.902H667.742C667.781 531.415 668.406 533.329 669.617 534.645C670.828 535.96 672.534 536.617 674.734 536.617C676.089 536.617 677.286 536.493 678.328 536.246C679.37 535.999 680.451 535.634 681.57 535.152V538.004C680.49 538.486 679.415 538.837 678.348 539.059C677.293 539.28 676.043 539.391 674.598 539.391C672.54 539.391 670.743 538.974 669.207 538.141C667.684 537.294 666.499 536.057 665.652 534.43C664.806 532.802 664.383 530.81 664.383 528.453C664.383 526.148 664.767 524.156 665.535 522.477C666.316 520.784 667.41 519.482 668.816 518.57C670.236 517.659 671.902 517.203 673.816 517.203ZM673.777 519.859C672.046 519.859 670.665 520.426 669.637 521.559C668.608 522.691 667.996 524.273 667.801 526.305H679.129C679.116 525.029 678.914 523.909 678.523 522.945C678.146 521.969 677.566 521.214 676.785 520.68C676.004 520.133 675.001 519.859 673.777 519.859ZM708.152 517.203C708.582 517.203 709.031 517.229 709.5 517.281C709.969 517.32 710.385 517.379 710.75 517.457L710.34 520.465C709.988 520.374 709.598 520.302 709.168 520.25C708.738 520.198 708.335 520.172 707.957 520.172C707.098 520.172 706.284 520.348 705.516 520.699C704.76 521.038 704.096 521.533 703.523 522.184C702.951 522.822 702.501 523.596 702.176 524.508C701.85 525.406 701.688 526.409 701.688 527.516V539H698.426V517.594H701.121L701.473 521.539H701.609C702.052 520.745 702.586 520.022 703.211 519.371C703.836 518.707 704.559 518.18 705.379 517.789C706.212 517.398 707.137 517.203 708.152 517.203ZM723.035 517.203C724.858 517.203 726.421 517.607 727.723 518.414C729.025 519.221 730.021 520.354 730.711 521.812C731.401 523.258 731.746 524.951 731.746 526.891V528.902H716.961C717 531.415 717.625 533.329 718.836 534.645C720.047 535.96 721.753 536.617 723.953 536.617C725.307 536.617 726.505 536.493 727.547 536.246C728.589 535.999 729.669 535.634 730.789 535.152V538.004C729.708 538.486 728.634 538.837 727.566 539.059C726.512 539.28 725.262 539.391 723.816 539.391C721.759 539.391 719.962 538.974 718.426 538.141C716.902 537.294 715.717 536.057 714.871 534.43C714.025 532.802 713.602 530.81 713.602 528.453C713.602 526.148 713.986 524.156 714.754 522.477C715.535 520.784 716.629 519.482 718.035 518.57C719.454 517.659 721.121 517.203 723.035 517.203ZM722.996 519.859C721.264 519.859 719.884 520.426 718.855 521.559C717.827 522.691 717.215 524.273 717.02 526.305H728.348C728.335 525.029 728.133 523.909 727.742 522.945C727.365 521.969 726.785 521.214 726.004 520.68C725.223 520.133 724.22 519.859 722.996 519.859ZM745.828 539.391C743.901 539.391 742.202 538.993 740.73 538.199C739.259 537.405 738.113 536.194 737.293 534.566C736.473 532.939 736.062 530.888 736.062 528.414C736.062 525.823 736.492 523.707 737.352 522.066C738.224 520.413 739.422 519.189 740.945 518.395C742.469 517.6 744.201 517.203 746.141 517.203C747.208 517.203 748.237 517.314 749.227 517.535C750.229 517.743 751.049 518.01 751.688 518.336L750.711 521.051C750.06 520.79 749.305 520.556 748.445 520.348C747.599 520.139 746.805 520.035 746.062 520.035C744.578 520.035 743.341 520.354 742.352 520.992C741.375 521.63 740.639 522.568 740.145 523.805C739.663 525.042 739.422 526.565 739.422 528.375C739.422 530.107 739.656 531.585 740.125 532.809C740.607 534.033 741.316 534.97 742.254 535.621C743.204 536.259 744.389 536.578 745.809 536.578C746.941 536.578 747.964 536.461 748.875 536.227C749.786 535.979 750.613 535.693 751.355 535.367V538.258C750.639 538.622 749.839 538.902 748.953 539.098C748.081 539.293 747.039 539.391 745.828 539.391ZM774.109 517.594V539H771.453L770.984 535.992H770.809C770.366 536.734 769.793 537.359 769.09 537.867C768.387 538.375 767.592 538.753 766.707 539C765.835 539.26 764.904 539.391 763.914 539.391C762.221 539.391 760.802 539.117 759.656 538.57C758.51 538.023 757.645 537.177 757.059 536.031C756.486 534.885 756.199 533.414 756.199 531.617V517.594H759.48V531.383C759.48 533.167 759.884 534.501 760.691 535.387C761.499 536.259 762.729 536.695 764.383 536.695C765.971 536.695 767.234 536.396 768.172 535.797C769.122 535.198 769.806 534.319 770.223 533.16C770.639 531.988 770.848 530.556 770.848 528.863V517.594H774.109ZM790.691 517.203C791.121 517.203 791.57 517.229 792.039 517.281C792.508 517.32 792.924 517.379 793.289 517.457L792.879 520.465C792.527 520.374 792.137 520.302 791.707 520.25C791.277 520.198 790.874 520.172 790.496 520.172C789.637 520.172 788.823 520.348 788.055 520.699C787.299 521.038 786.635 521.533 786.062 522.184C785.49 522.822 785.04 523.596 784.715 524.508C784.389 525.406 784.227 526.409 784.227 527.516V539H780.965V517.594H783.66L784.012 521.539H784.148C784.591 520.745 785.125 520.022 785.75 519.371C786.375 518.707 787.098 518.18 787.918 517.789C788.751 517.398 789.676 517.203 790.691 517.203ZM811.18 533.141C811.18 534.508 810.835 535.66 810.145 536.598C809.467 537.522 808.491 538.219 807.215 538.688C805.952 539.156 804.441 539.391 802.684 539.391C801.186 539.391 799.891 539.273 798.797 539.039C797.703 538.805 796.746 538.473 795.926 538.043V535.055C796.798 535.484 797.84 535.875 799.051 536.227C800.262 536.578 801.499 536.754 802.762 536.754C804.611 536.754 805.952 536.454 806.785 535.855C807.618 535.257 808.035 534.443 808.035 533.414C808.035 532.828 807.866 532.314 807.527 531.871C807.202 531.415 806.648 530.979 805.867 530.562C805.086 530.133 804.005 529.664 802.625 529.156C801.258 528.635 800.073 528.121 799.07 527.613C798.081 527.092 797.312 526.461 796.766 525.719C796.232 524.977 795.965 524.013 795.965 522.828C795.965 521.018 796.694 519.632 798.152 518.668C799.624 517.691 801.551 517.203 803.934 517.203C805.223 517.203 806.427 517.333 807.547 517.594C808.68 517.841 809.734 518.18 810.711 518.609L809.617 521.207C808.732 520.829 807.788 520.51 806.785 520.25C805.783 519.99 804.76 519.859 803.719 519.859C802.221 519.859 801.069 520.107 800.262 520.602C799.467 521.096 799.07 521.773 799.07 522.633C799.07 523.297 799.253 523.844 799.617 524.273C799.995 524.703 800.594 525.107 801.414 525.484C802.234 525.862 803.315 526.305 804.656 526.812C805.997 527.307 807.156 527.822 808.133 528.355C809.109 528.876 809.858 529.514 810.379 530.27C810.913 531.012 811.18 531.969 811.18 533.141ZM834.852 528.258C834.852 530.016 834.624 531.585 834.168 532.965C833.712 534.345 833.055 535.51 832.195 536.461C831.336 537.411 830.294 538.141 829.07 538.648C827.859 539.143 826.486 539.391 824.949 539.391C823.517 539.391 822.202 539.143 821.004 538.648C819.819 538.141 818.79 537.411 817.918 536.461C817.059 535.51 816.388 534.345 815.906 532.965C815.438 531.585 815.203 530.016 815.203 528.258C815.203 525.914 815.6 523.922 816.395 522.281C817.189 520.628 818.322 519.371 819.793 518.512C821.277 517.639 823.042 517.203 825.086 517.203C827.039 517.203 828.745 517.639 830.203 518.512C831.674 519.384 832.814 520.647 833.621 522.301C834.441 523.941 834.852 525.927 834.852 528.258ZM818.562 528.258C818.562 529.977 818.79 531.467 819.246 532.73C819.702 533.993 820.405 534.97 821.355 535.66C822.306 536.35 823.53 536.695 825.027 536.695C826.512 536.695 827.729 536.35 828.68 535.66C829.643 534.97 830.353 533.993 830.809 532.73C831.264 531.467 831.492 529.977 831.492 528.258C831.492 526.552 831.264 525.081 830.809 523.844C830.353 522.594 829.65 521.63 828.699 520.953C827.749 520.276 826.518 519.938 825.008 519.938C822.781 519.938 821.147 520.673 820.105 522.145C819.077 523.616 818.562 525.654 818.562 528.258ZM843.387 531.07H841.258L840.359 510.445H844.285L843.387 531.07ZM839.969 536.969C839.969 536.057 840.19 535.413 840.633 535.035C841.076 534.645 841.629 534.449 842.293 534.449C842.944 534.449 843.491 534.645 843.934 535.035C844.389 535.413 844.617 536.057 844.617 536.969C844.617 537.867 844.389 538.525 843.934 538.941C843.491 539.345 842.944 539.547 842.293 539.547C841.629 539.547 841.076 539.345 840.633 538.941C840.19 538.525 839.969 537.867 839.969 536.969Z" fill="white"/>
</svg>
